<svg version="1.1" xmlns="http://www.w3.org/2000/svg" viewBox="0 0 378.3449060718744 223.67596714016776" width="378.3449060718744" height="223.67596714016776">
  <!-- svg-source:excalidraw -->
  
  <defs>
    <style class="style-fonts">
      @font-face {
        font-family: "Virgil";
        src: url("https://excalidraw.com/Virgil.woff2");
      }
      @font-face {
        font-family: "Cascadia";
        src: url("https://excalidraw.com/Cascadia.woff2");
      }
    </style>
  </defs>
  <g stroke-linecap="round" transform="translate(176.29582309763913 31.312560194860964) rotate(0 13.58467765460091 91.1817034726534)"><path d="M13.16 -0.53 C15.13 -2.45, 17.29 2.52, 19.05 8.84 C20.81 15.17, 22.5 25.86, 23.71 37.4 C24.92 48.93, 25.92 63.92, 26.31 78.05 C26.7 92.18, 26.71 108.75, 26.03 122.19 C25.35 135.64, 23.82 149.21, 22.25 158.73 C20.68 168.25, 18.51 175.57, 16.6 179.3 C14.68 183.03, 12.82 184.16, 10.79 181.13 C8.76 178.1, 6.11 170.17, 4.43 161.11 C2.76 152.05, 1.43 139.91, 0.73 126.75 C0.03 113.59, -0.1 96.44, 0.23 82.16 C0.55 67.88, 1.54 52.84, 2.69 41.09 C3.83 29.34, 4.91 18.22, 7.1 11.64 C9.29 5.06, 14.25 2.81, 15.83 1.6 C17.4 0.4, 16.61 3.01, 16.54 4.42 M9.14 9.77 C10.77 2.79, 12.4 -1.5, 14.53 -1.02 C16.67 -0.55, 20.22 5.05, 21.96 12.6 C23.71 20.16, 23.93 32.33, 25.01 44.31 C26.09 56.29, 28.29 70.54, 28.44 84.49 C28.58 98.43, 26.9 115.16, 25.87 127.96 C24.85 140.75, 23.7 152.59, 22.28 161.26 C20.86 169.92, 19.46 177.06, 17.35 179.95 C15.24 182.84, 11.91 182.79, 9.64 178.59 C7.37 174.38, 5.46 164.84, 3.73 154.72 C2 144.6, -0.29 130.91, -0.75 117.88 C-1.2 104.84, 0.52 90.13, 1.01 76.5 C1.51 62.87, 1.24 47.33, 2.22 36.07 C3.19 24.82, 6.06 13.27, 6.86 8.94 C7.66 4.62, 6.52 8.86, 6.99 10.15" stroke="none" stroke-width="0" fill="#868e96"></path><path d="M8.81 6.74 C10.41 0.95, 13.03 -0.17, 14.99 1.44 C16.96 3.05, 18.68 8.38, 20.59 16.41 C22.5 24.45, 25.38 37.26, 26.46 49.65 C27.54 62.04, 27.35 76.77, 27.05 90.74 C26.76 104.72, 25.59 121.11, 24.71 133.52 C23.83 145.94, 23.46 157.2, 21.78 165.23 C20.1 173.25, 16.68 179.89, 14.62 181.65 C12.56 183.42, 11.2 180.82, 9.44 175.83 C7.67 170.85, 5.68 162.22, 4.01 151.75 C2.35 141.28, 0.13 126.9, -0.56 113.03 C-1.24 99.17, -0.61 82.18, -0.09 68.58 C0.44 54.99, 0.68 42.54, 2.59 31.48 C4.5 20.42, 9.85 7.07, 11.37 2.22 C12.89 -2.63, 11.89 0.94, 11.73 2.4 M12.6 0.83 C14.54 -2.1, 17.65 0.92, 19.75 6.12 C21.86 11.32, 24.1 21.12, 25.21 32.01 C26.31 42.9, 26.17 57.67, 26.39 71.46 C26.6 85.25, 26.88 101.39, 26.47 114.75 C26.07 128.12, 25.53 141.32, 23.96 151.66 C22.38 162, 19.22 171.61, 17.03 176.8 C14.84 181.98, 12.57 184.82, 10.83 182.76 C9.09 180.71, 7.95 173.02, 6.59 164.48 C5.24 155.95, 4 144.05, 2.68 131.56 C1.35 119.06, -1.31 103.58, -1.33 89.52 C-1.34 75.47, 1.5 59.7, 2.59 47.21 C3.67 34.72, 3.71 22.35, 5.18 14.6 C6.66 6.85, 10.34 2.81, 11.44 0.7 C12.54 -1.41, 11.48 0.64, 11.8 1.94" stroke="#000000" stroke-width="1" fill="none"></path></g><g stroke-linecap="round" transform="translate(6.636124711246737 26.929532455479148) rotate(16.046669225656338 91.77812294848212 22.141352326478795)"><path d="M88.24 -0.31 C100.55 -0.67, 115.14 1.14, 127.38 2.56 C139.62 3.98, 153.02 5.85, 161.7 8.19 C170.39 10.54, 176.18 13.62, 179.48 16.62 C182.78 19.62, 183.76 23.14, 181.51 26.19 C179.25 29.24, 173.79 32.32, 165.93 34.91 C158.08 37.49, 146.14 40.22, 134.39 41.68 C122.63 43.14, 108.58 43.37, 95.39 43.67 C82.19 43.97, 67.38 44.72, 55.22 43.46 C43.06 42.2, 31.25 38.68, 22.44 36.1 C13.63 33.51, 5.79 31.06, 2.35 27.95 C-1.08 24.84, -0.88 20.5, 1.82 17.44 C4.51 14.39, 10.65 12.08, 18.5 9.63 C26.35 7.18, 34.14 4.16, 48.91 2.74 C63.69 1.32, 94.23 1.15, 107.14 1.12 C120.04 1.09, 126.54 2.46, 126.33 2.56 M97.4 1.56 C109.89 1.54, 125.46 2.49, 137.17 3.8 C148.89 5.11, 160.3 6.74, 167.69 9.43 C175.07 12.12, 179.47 16.71, 181.48 19.95 C183.48 23.18, 183.42 25.99, 179.71 28.86 C176 31.73, 168.21 35, 159.21 37.15 C150.22 39.29, 138.01 40.43, 125.73 41.71 C113.44 43, 98.9 44.72, 85.52 44.85 C72.15 44.98, 57.08 44.41, 45.48 42.52 C33.89 40.63, 23.26 36.36, 15.93 33.52 C8.6 30.67, 3.42 28.27, 1.48 25.45 C-0.46 22.63, 0.39 19.56, 4.3 16.57 C8.2 13.58, 16 10.11, 24.91 7.51 C33.82 4.91, 45.34 1.97, 57.74 0.96 C70.14 -0.04, 92.29 1.5, 99.3 1.49 C106.32 1.48, 99.98 0.93, 99.81 0.88" stroke="none" stroke-width="0" fill="#ced4da"></path><path d="M89.27 -0.56 C101.81 -1.18, 116.88 0.04, 128.85 1.45 C140.83 2.85, 152.62 5.3, 161.14 7.88 C169.65 10.46, 176.59 13.65, 179.97 16.91 C183.34 20.18, 183.98 24.21, 181.39 27.46 C178.8 30.71, 172.46 33.99, 164.43 36.42 C156.4 38.84, 144.89 40.57, 133.2 42.03 C121.52 43.48, 107.57 45.08, 94.33 45.14 C81.09 45.21, 65.94 43.72, 53.76 42.43 C41.59 41.13, 29.75 39.91, 21.29 37.37 C12.84 34.83, 6.22 30.51, 3.05 27.19 C-0.12 23.87, -0.33 20.53, 2.27 17.48 C4.88 14.42, 10.65 11.18, 18.67 8.84 C26.69 6.5, 36.66 4.96, 50.4 3.43 C64.15 1.9, 90.58 -0.01, 101.13 -0.34 C111.68 -0.68, 113.93 0.88, 113.7 1.41 M85.93 -1.1 C98.45 -1.91, 115.22 -0.14, 127.47 1.4 C139.72 2.93, 150.51 5.78, 159.43 8.09 C168.36 10.4, 177.2 12.36, 181 15.27 C184.81 18.19, 184.54 22.56, 182.27 25.59 C180 28.63, 174.75 30.98, 167.41 33.48 C160.07 35.98, 149.8 38.8, 138.21 40.61 C126.62 42.43, 111.36 44.28, 97.86 44.39 C84.36 44.5, 69.75 42.67, 57.21 41.27 C44.66 39.88, 31.34 37.94, 22.58 35.99 C13.82 34.05, 8.33 32.37, 4.66 29.58 C0.98 26.79, -1.25 22.49, 0.53 19.25 C2.31 16.01, 7.83 12.85, 15.33 10.15 C22.83 7.45, 33.6 4.72, 45.53 3.05 C57.46 1.38, 80.34 0.53, 86.93 0.13 C93.53 -0.27, 85.08 0.41, 85.08 0.64" stroke="#000000" stroke-width="1" fill="none"></path></g><g stroke-linecap="round" transform="translate(43.25419578697216 84.86525536635276) rotate(347.26799269642163 72.51420156701772 18.71297159209317)"><path d="M63.96 0.26 C75.25 -0.21, 91.15 0.42, 102.18 1.82 C113.22 3.22, 123.14 6.09, 130.14 8.66 C137.14 11.24, 142.75 14.34, 144.2 17.25 C145.65 20.15, 143.78 23.21, 138.85 26.1 C133.91 28.98, 124.32 32.65, 114.59 34.53 C104.87 36.42, 92.36 37.22, 80.49 37.42 C68.62 37.63, 54.41 37.17, 43.38 35.78 C32.36 34.38, 21.42 31.49, 14.34 29.06 C7.26 26.62, 2.3 23.99, 0.91 21.14 C-0.48 18.3, 1.19 15.01, 5.99 11.96 C10.8 8.92, 18.65 4.88, 29.76 2.89 C40.87 0.9, 64.29 0.32, 72.65 0.03 C81.01 -0.27, 79.92 0.77, 79.91 1.13 M58.67 1.59 C69.82 0.65, 84.02 0.43, 95.1 1.1 C106.19 1.77, 117.23 3.48, 125.17 5.62 C133.1 7.77, 139.86 10.94, 142.72 13.98 C145.57 17.02, 146.01 20.55, 142.3 23.85 C138.59 27.16, 129.55 31.72, 120.44 33.82 C111.33 35.92, 99.55 36.2, 87.63 36.44 C75.72 36.69, 60.26 36.09, 48.94 35.28 C37.62 34.47, 27.54 33.68, 19.71 31.58 C11.89 29.49, 4.72 25.95, 1.99 22.69 C-0.74 19.44, -0.29 15.17, 3.32 12.05 C6.92 8.94, 14.43 5.76, 23.62 4 C32.8 2.24, 52.81 2.02, 58.41 1.49 C64.01 0.95, 57.05 0.82, 57.21 0.77" stroke="none" stroke-width="0" fill="#ced4da"></path><path d="M45.26 1.94 C55.5 0.55, 71.52 -0.5, 83.49 -0.17 C95.46 0.17, 107.67 2.11, 117.08 3.95 C126.48 5.78, 135.24 8.04, 139.92 10.85 C144.59 13.65, 146.84 17.54, 145.13 20.79 C143.42 24.04, 137.26 27.95, 129.65 30.34 C122.04 32.73, 110.81 34.09, 99.45 35.13 C88.09 36.16, 73.32 36.69, 61.48 36.53 C49.64 36.37, 37.83 35.92, 28.4 34.19 C18.96 32.45, 9.6 29.06, 4.87 26.12 C0.13 23.17, -1.63 19.66, 0 16.53 C1.64 13.39, 5.14 9.98, 14.69 7.31 C24.24 4.64, 48.48 1.65, 57.29 0.52 C66.11 -0.62, 67.38 0.3, 67.58 0.51 M108 2.43 C118.42 3.54, 128.74 5.61, 134.71 8.42 C140.69 11.24, 143.46 15.98, 143.87 19.33 C144.28 22.67, 142.96 25.84, 137.18 28.47 C131.4 31.1, 119.76 33.6, 109.18 35.1 C98.6 36.6, 85.54 37.52, 73.7 37.45 C61.85 37.39, 48.75 36.19, 38.1 34.7 C27.46 33.21, 16.2 31.24, 9.81 28.51 C3.41 25.78, -0.05 21.2, -0.27 18.33 C-0.5 15.46, 2.65 14.02, 8.45 11.28 C14.26 8.55, 24.41 3.81, 34.54 1.93 C44.67 0.05, 57.09 0.11, 69.25 0 C81.4 -0.12, 101.1 0.68, 107.49 1.26 C113.87 1.83, 108.11 2.96, 107.55 3.43" stroke="#000000" stroke-width="1" fill="none"></path></g><g stroke-linecap="round" transform="translate(188.15253546366347 26.584866921226478) rotate(343.95333077434367 91.77812294848212 22.141352326478795)"><path d="M88.24 -0.31 C100.55 -0.67, 115.14 1.14, 127.38 2.56 C139.62 3.98, 153.02 5.85, 161.7 8.19 C170.39 10.54, 176.18 13.62, 179.48 16.62 C182.78 19.62, 183.76 23.14, 181.51 26.19 C179.25 29.24, 173.79 32.32, 165.93 34.91 C158.08 37.49, 146.14 40.22, 134.39 41.68 C122.63 43.14, 108.58 43.37, 95.39 43.67 C82.19 43.97, 67.38 44.72, 55.22 43.46 C43.06 42.2, 31.25 38.68, 22.44 36.1 C13.63 33.51, 5.79 31.06, 2.35 27.95 C-1.08 24.84, -0.88 20.5, 1.82 17.44 C4.51 14.39, 10.65 12.08, 18.5 9.63 C26.35 7.18, 34.14 4.16, 48.91 2.74 C63.69 1.32, 94.23 1.15, 107.14 1.12 C120.04 1.09, 126.54 2.46, 126.33 2.56 M97.4 1.56 C109.89 1.54, 125.46 2.49, 137.17 3.8 C148.89 5.11, 160.3 6.74, 167.69 9.43 C175.07 12.12, 179.47 16.71, 181.48 19.95 C183.48 23.18, 183.42 25.99, 179.71 28.86 C176 31.73, 168.21 35, 159.21 37.15 C150.22 39.29, 138.01 40.43, 125.73 41.71 C113.44 43, 98.9 44.72, 85.52 44.85 C72.15 44.98, 57.08 44.41, 45.48 42.52 C33.89 40.63, 23.26 36.36, 15.93 33.52 C8.6 30.67, 3.42 28.27, 1.48 25.45 C-0.46 22.63, 0.39 19.56, 4.3 16.57 C8.2 13.58, 16 10.11, 24.91 7.51 C33.82 4.91, 45.34 1.97, 57.74 0.96 C70.14 -0.04, 92.29 1.5, 99.3 1.49 C106.32 1.48, 99.98 0.93, 99.81 0.88" stroke="none" stroke-width="0" fill="#ced4da"></path><path d="M89.27 -0.56 C101.81 -1.18, 116.88 0.04, 128.85 1.45 C140.83 2.85, 152.62 5.3, 161.14 7.88 C169.65 10.46, 176.59 13.65, 179.97 16.91 C183.34 20.18, 183.98 24.21, 181.39 27.46 C178.8 30.71, 172.46 33.99, 164.43 36.42 C156.4 38.84, 144.89 40.57, 133.2 42.03 C121.52 43.48, 107.57 45.08, 94.33 45.14 C81.09 45.21, 65.94 43.72, 53.76 42.43 C41.59 41.13, 29.75 39.91, 21.29 37.37 C12.84 34.83, 6.22 30.51, 3.05 27.19 C-0.12 23.87, -0.33 20.53, 2.27 17.48 C4.88 14.42, 10.65 11.18, 18.67 8.84 C26.69 6.5, 36.66 4.96, 50.4 3.43 C64.15 1.9, 90.58 -0.01, 101.13 -0.34 C111.68 -0.68, 113.93 0.88, 113.7 1.41 M85.93 -1.1 C98.45 -1.91, 115.22 -0.14, 127.47 1.4 C139.72 2.93, 150.51 5.78, 159.43 8.09 C168.36 10.4, 177.2 12.36, 181 15.27 C184.81 18.19, 184.54 22.56, 182.27 25.59 C180 28.63, 174.75 30.98, 167.41 33.48 C160.07 35.98, 149.8 38.8, 138.21 40.61 C126.62 42.43, 111.36 44.28, 97.86 44.39 C84.36 44.5, 69.75 42.67, 57.21 41.27 C44.66 39.88, 31.34 37.94, 22.58 35.99 C13.82 34.05, 8.33 32.37, 4.66 29.58 C0.98 26.79, -1.25 22.49, 0.53 19.25 C2.31 16.01, 7.83 12.85, 15.33 10.15 C22.83 7.45, 33.6 4.72, 45.53 3.05 C57.46 1.38, 80.34 0.53, 86.93 0.13 C93.53 -0.27, 85.08 0.41, 85.08 0.64" stroke="#000000" stroke-width="1" fill="none"></path></g><g stroke-linecap="round" transform="translate(191.20304481605427 85.75082533126164) rotate(12.732007303578339 72.51420156701772 18.71297159209317)"><path d="M63.96 0.26 C75.25 -0.21, 91.15 0.42, 102.18 1.82 C113.22 3.22, 123.14 6.09, 130.14 8.66 C137.14 11.24, 142.75 14.34, 144.2 17.25 C145.65 20.15, 143.78 23.21, 138.85 26.1 C133.91 28.98, 124.32 32.65, 114.59 34.53 C104.87 36.42, 92.36 37.22, 80.49 37.42 C68.62 37.63, 54.41 37.17, 43.38 35.78 C32.36 34.38, 21.42 31.49, 14.34 29.06 C7.26 26.62, 2.3 23.99, 0.91 21.14 C-0.48 18.3, 1.19 15.01, 5.99 11.96 C10.8 8.92, 18.65 4.88, 29.76 2.89 C40.87 0.9, 64.29 0.32, 72.65 0.03 C81.01 -0.27, 79.92 0.77, 79.91 1.13 M58.67 1.59 C69.82 0.65, 84.02 0.43, 95.1 1.1 C106.19 1.77, 117.23 3.48, 125.17 5.62 C133.1 7.77, 139.86 10.94, 142.72 13.98 C145.57 17.02, 146.01 20.55, 142.3 23.85 C138.59 27.16, 129.55 31.72, 120.44 33.82 C111.33 35.92, 99.55 36.2, 87.63 36.44 C75.72 36.69, 60.26 36.09, 48.94 35.28 C37.62 34.47, 27.54 33.68, 19.71 31.58 C11.89 29.49, 4.72 25.95, 1.99 22.69 C-0.74 19.44, -0.29 15.17, 3.32 12.05 C6.92 8.94, 14.43 5.76, 23.62 4 C32.8 2.24, 52.81 2.02, 58.41 1.49 C64.01 0.95, 57.05 0.82, 57.21 0.77" stroke="none" stroke-width="0" fill="#ced4da"></path><path d="M45.26 1.94 C55.5 0.55, 71.52 -0.5, 83.49 -0.17 C95.46 0.17, 107.67 2.11, 117.08 3.95 C126.48 5.78, 135.24 8.04, 139.92 10.85 C144.59 13.65, 146.84 17.54, 145.13 20.79 C143.42 24.04, 137.26 27.95, 129.65 30.34 C122.04 32.73, 110.81 34.09, 99.45 35.13 C88.09 36.16, 73.32 36.69, 61.48 36.53 C49.64 36.37, 37.83 35.92, 28.4 34.19 C18.96 32.45, 9.6 29.06, 4.87 26.12 C0.13 23.17, -1.63 19.66, 0 16.53 C1.64 13.39, 5.14 9.98, 14.69 7.31 C24.24 4.64, 48.48 1.65, 57.29 0.52 C66.11 -0.62, 67.38 0.3, 67.58 0.51 M108 2.43 C118.42 3.54, 128.74 5.61, 134.71 8.42 C140.69 11.24, 143.46 15.98, 143.87 19.33 C144.28 22.67, 142.96 25.84, 137.18 28.47 C131.4 31.1, 119.76 33.6, 109.18 35.1 C98.6 36.6, 85.54 37.52, 73.7 37.45 C61.85 37.39, 48.75 36.19, 38.1 34.7 C27.46 33.21, 16.2 31.24, 9.81 28.51 C3.41 25.78, -0.05 21.2, -0.27 18.33 C-0.5 15.46, 2.65 14.02, 8.45 11.28 C14.26 8.55, 24.41 3.81, 34.54 1.93 C44.67 0.05, 57.09 0.11, 69.25 0 C81.4 -0.12, 101.1 0.68, 107.49 1.26 C113.87 1.83, 108.11 2.96, 107.55 3.43" stroke="#000000" stroke-width="1" fill="none"></path></g><g stroke-linecap="round"><g transform="translate(185.50893698593148 39.1241451128393) rotate(0 -6.630581380861486 -13.72172104490734)"><path d="M1.11 0.95 C-0.99 -3.48, -11.19 -21.93, -13.49 -26.56 M0.24 0.41 C-1.94 -4.4, -12.16 -24.1, -14.37 -28.4" stroke="#000000" stroke-width="1" fill="none"></path></g></g><mask></mask><g stroke-linecap="round"><g transform="translate(196.5876414334479 38.40993987107635) rotate(0 4.753356221363163 -13.713745064218458)"><path d="M0.22 -1.07 C1.59 -5.63, 6.94 -22.14, 8.43 -26.49 M-1.12 0.98 C0.59 -4.03, 9.06 -23.9, 10.62 -28.41" stroke="#000000" stroke-width="1" fill="none"></path></g></g><mask></mask></svg>