<svg version="1.1" xmlns="http://www.w3.org/2000/svg" viewBox="0 0 186.48928026959754 453.745723866115" width="186.48928026959754" height="453.745723866115">
  <!-- svg-source:excalidraw -->
  
  <defs>
    <style class="style-fonts">
      @font-face {
        font-family: "Virgil";
        src: url("https://excalidraw.com/Virgil.woff2");
      }
      @font-face {
        font-family: "Cascadia";
        src: url("https://excalidraw.com/Cascadia.woff2");
      }
    </style>
  </defs>
  <g stroke-linecap="round" transform="translate(60.971715943729464 18.41938622696685) rotate(91.18293490363347 3.560856171779051 11.216688383449878)"><path d="M3.17 -0.22 C4 -0.89, 5.19 0.67, 5.76 1.74 C6.34 2.81, 6.29 4.12, 6.63 6.22 C6.98 8.31, 7.94 11.91, 7.85 14.31 C7.76 16.7, 6.86 19.1, 6.1 20.58 C5.35 22.06, 4.19 23.34, 3.33 23.2 C2.47 23.05, 1.52 21.58, 0.96 19.73 C0.4 17.88, -0.03 14.66, -0.03 12.07 C-0.02 9.47, 0.47 6.07, 0.99 4.16 C1.5 2.25, 2.47 1.24, 3.05 0.61 C3.64 -0.02, 4.61 0.2, 4.48 0.36 M2.49 0.29 C3.36 -0.85, 4.21 -0.21, 5.1 0.38 C5.99 0.96, 7.35 1.72, 7.86 3.8 C8.36 5.89, 8.22 10.31, 8.12 12.88 C8.03 15.45, 8.22 17.83, 7.27 19.23 C6.33 20.64, 3.33 21.07, 2.45 21.32 C1.58 21.57, 2.65 21.83, 2.03 20.73 C1.41 19.64, -0.9 17.25, -1.27 14.75 C-1.64 12.24, -0.97 8.08, -0.19 5.68 C0.59 3.28, 2.9 1.14, 3.4 0.35 C3.9 -0.44, 3.15 0.81, 2.81 0.94" stroke="none" stroke-width="0" fill="#12b886"></path><path d="M3.61 -0.76 C4.55 -1.03, 6.1 0.62, 6.54 2.26 C6.98 3.9, 6.08 6.7, 6.27 9.09 C6.46 11.48, 7.96 14.55, 7.68 16.59 C7.4 18.63, 5.49 20.48, 4.58 21.34 C3.67 22.2, 2.73 22.37, 2.21 21.77 C1.68 21.18, 1.67 19.86, 1.41 17.75 C1.15 15.63, 0.86 11.54, 0.65 9.09 C0.45 6.63, -0.17 4.37, 0.19 3.01 C0.55 1.64, 2.28 1.5, 2.79 0.91 C3.3 0.32, 3.08 -0.44, 3.25 -0.53 M5.43 2.22 C6.44 3.17, 7.84 5.67, 7.97 7.54 C8.09 9.42, 6.53 11.22, 6.17 13.47 C5.81 15.72, 6.1 19.43, 5.8 21.03 C5.49 22.63, 5.24 23.5, 4.33 23.07 C3.41 22.64, 1.11 20.59, 0.29 18.44 C-0.54 16.29, -0.52 12.32, -0.61 10.16 C-0.71 8.01, -1.09 7.16, -0.3 5.51 C0.49 3.86, 3.04 0.86, 4.13 0.28 C5.22 -0.29, 6.15 2, 6.23 2.05 C6.32 2.1, 4.9 0.58, 4.64 0.6" stroke="#000000" stroke-width="1" fill="none"></path></g><g stroke-linecap="round" transform="translate(59.44492800246451 14.11877941595938) rotate(49.89819845953967 3.560856171779051 11.216688383449878)"><path d="M2.62 0.78 C3.44 0.33, 5.67 0.53, 6.38 1.93 C7.09 3.34, 6.77 6.79, 6.9 9.21 C7.02 11.63, 7.39 14.44, 7.13 16.47 C6.86 18.51, 5.94 20.53, 5.32 21.44 C4.7 22.34, 4.11 22.56, 3.41 21.91 C2.71 21.26, 1.71 19.45, 1.1 17.55 C0.48 15.66, -0.14 12.94, -0.27 10.55 C-0.41 8.16, -0.42 4.82, 0.3 3.22 C1.02 1.61, 3.44 1.54, 4.05 0.91 C4.66 0.28, 3.97 -0.48, 3.94 -0.58 M1.98 0.93 C2.57 0.36, 4.38 1.28, 4.98 2.37 C5.59 3.46, 5.19 5.31, 5.59 7.48 C6 9.64, 7.44 13.42, 7.43 15.35 C7.42 17.28, 6.39 17.78, 5.52 19.05 C4.64 20.32, 2.83 23.18, 2.17 22.97 C1.5 22.76, 1.74 19.68, 1.53 17.8 C1.31 15.91, 1.13 13.62, 0.89 11.66 C0.65 9.71, -0.11 7.84, 0.08 6.07 C0.27 4.3, 1.65 2.11, 2.04 1.04 C2.43 -0.02, 2.46 -0.48, 2.44 -0.3" stroke="none" stroke-width="0" fill="#12b886"></path><path d="M2 1.12 C2.7 0.31, 4.34 -0.62, 5.23 0.49 C6.11 1.61, 6.95 5.55, 7.29 7.83 C7.64 10.11, 7.62 12.08, 7.29 14.16 C6.95 16.25, 6.03 18.83, 5.3 20.33 C4.58 21.83, 3.59 23.31, 2.92 23.17 C2.26 23.02, 1.95 21.51, 1.32 19.45 C0.7 17.39, -0.7 13.47, -0.81 10.81 C-0.91 8.16, -0.13 5.44, 0.69 3.52 C1.51 1.6, 3.76 -0.17, 4.12 -0.7 C4.47 -1.23, 3.08 -0.14, 2.8 0.34 M3.35 1.67 C4.01 0.66, 5.04 -0.75, 5.39 0.01 C5.75 0.77, 5.15 3.78, 5.47 6.24 C5.8 8.69, 7.17 12.55, 7.35 14.74 C7.52 16.93, 7.21 18.21, 6.52 19.38 C5.83 20.56, 4.31 21.95, 3.18 21.81 C2.06 21.67, 0.08 19.82, -0.24 18.55 C-0.57 17.27, 1.11 16.2, 1.24 14.16 C1.38 12.12, 0.25 8.69, 0.57 6.33 C0.89 3.97, 3.01 1, 3.17 0.01 C3.33 -0.97, 1.67 0.02, 1.54 0.43" stroke="#000000" stroke-width="1" fill="none"></path></g><g stroke-linecap="round" transform="translate(53.92571168880147 9.223294654212651) rotate(385.1546616155248 3.560856171779051 11.216688383449878)"><path d="M4.63 0.81 C5.24 0.96, 5.41 1.57, 5.96 3.21 C6.51 4.85, 7.78 8.18, 7.94 10.64 C8.11 13.1, 7.5 15.93, 6.93 17.96 C6.35 20, 5.33 22.21, 4.49 22.86 C3.66 23.5, 2.62 23.03, 1.92 21.83 C1.22 20.62, 0.52 18.01, 0.28 15.62 C0.05 13.23, 0.29 9.69, 0.5 7.5 C0.7 5.32, 0.74 3.7, 1.51 2.51 C2.28 1.31, 4.78 0.58, 5.14 0.34 C5.51 0.09, 4.02 0.97, 3.72 1.04 M4.67 0.07 C5.56 0.21, 7.01 0.8, 7.59 2.7 C8.17 4.61, 8.15 8.91, 8.15 11.5 C8.14 14.08, 8.45 16.61, 7.57 18.22 C6.69 19.83, 3.75 20.6, 2.89 21.15 C2.03 21.69, 3.07 22.33, 2.4 21.48 C1.73 20.63, -0.68 18.49, -1.14 16.07 C-1.6 13.64, -1.05 9.47, -0.36 6.96 C0.33 4.44, 2.15 2.16, 3.01 0.99 C3.87 -0.19, 4.75 0.17, 4.79 -0.07 C4.82 -0.31, 3.22 -0.62, 3.22 -0.47" stroke="none" stroke-width="0" fill="#12b886"></path><path d="M4.47 0.03 C5.02 0.13, 4.54 1.56, 5.13 3.18 C5.73 4.81, 7.83 7.5, 8.01 9.77 C8.2 12.04, 6.83 14.82, 6.23 16.79 C5.62 18.77, 4.92 20.75, 4.4 21.63 C3.88 22.51, 3.67 23.04, 3.12 22.08 C2.56 21.12, 1.74 18.03, 1.08 15.86 C0.42 13.69, -0.76 11.13, -0.87 9.06 C-0.98 6.98, -0.25 5.06, 0.42 3.42 C1.09 1.78, 2.53 -0.15, 3.18 -0.78 C3.84 -1.41, 4.07 -0.58, 4.35 -0.36 M5.32 0.71 C5.88 0.64, 5.18 1.07, 5.54 2.89 C5.89 4.71, 7.14 8.92, 7.47 11.65 C7.8 14.38, 8.18 17.55, 7.52 19.28 C6.86 21.01, 4.58 21.98, 3.51 22.01 C2.45 22.03, 1.86 20.4, 1.13 19.42 C0.4 18.44, -0.92 18.15, -0.86 16.13 C-0.79 14.11, 0.93 9.62, 1.54 7.29 C2.15 4.97, 2.46 3.5, 2.82 2.17 C3.17 0.83, 3.49 -0.41, 3.66 -0.72 C3.84 -1.04, 3.63 0, 3.85 0.28" stroke="#000000" stroke-width="1" fill="none"></path></g><g stroke-linecap="round" transform="translate(46.56444487790509 9.603305446613689) rotate(343.8606874341177 3.560856171779051 11.216688383449878)"><path d="M5.34 0.33 C6.13 0.86, 6.07 3.77, 6.43 5.87 C6.78 7.98, 7.47 10.71, 7.45 12.96 C7.42 15.21, 6.76 17.83, 6.28 19.39 C5.8 20.95, 5.29 22.16, 4.56 22.29 C3.84 22.42, 2.7 21.53, 1.9 20.18 C1.11 18.83, 0.19 16.53, -0.19 14.19 C-0.57 11.86, -0.86 8.24, -0.38 6.18 C0.09 4.12, 1.72 2.83, 2.65 1.83 C3.58 0.84, 4.67 0.33, 5.21 0.23 C5.74 0.13, 5.99 0.88, 5.85 1.24 M3.91 1.41 C4.55 1.62, 4.36 2.83, 4.97 4.57 C5.57 6.31, 7.32 9.85, 7.54 11.85 C7.77 13.86, 7.03 14.8, 6.32 16.61 C5.6 18.42, 3.93 22.17, 3.28 22.72 C2.63 23.26, 2.78 21.13, 2.43 19.85 C2.08 18.58, 1.64 16.84, 1.16 15.07 C0.69 13.3, -0.39 11.33, -0.41 9.23 C-0.43 7.13, 0.33 4.16, 1.02 2.48 C1.72 0.8, 3.42 -0.58, 3.77 -0.82 C4.13 -1.07, 3.18 0.53, 3.14 1" stroke="none" stroke-width="0" fill="#12b886"></path><path d="M4.04 -0.67 C4.97 -0.5, 6.06 2.72, 6.62 4.55 C7.19 6.38, 7.51 8.11, 7.44 10.3 C7.37 12.49, 6.76 15.57, 6.21 17.69 C5.66 19.8, 4.81 22.3, 4.16 22.98 C3.51 23.67, 3.09 23.21, 2.31 21.81 C1.53 20.42, -0.17 17.08, -0.54 14.61 C-0.9 12.14, -0.39 9.25, 0.12 6.98 C0.63 4.72, 1.96 2.11, 2.54 1.02 C3.12 -0.07, 3.34 0.3, 3.59 0.45 C3.83 0.6, 4 1.7, 4.02 1.93 M4.32 -0.75 C4.69 -0.87, 4.29 1.47, 4.81 3.47 C5.32 5.47, 6.99 9.04, 7.4 11.27 C7.81 13.5, 7.79 15.15, 7.27 16.83 C6.75 18.51, 5.38 20.77, 4.28 21.37 C3.18 21.97, 1.14 21.07, 0.69 20.42 C0.23 19.78, 1.66 19.29, 1.57 17.48 C1.48 15.67, 0.04 12.19, 0.14 9.54 C0.24 6.89, 1.73 3.25, 2.19 1.61 C2.65 -0.04, 2.64 -0.24, 2.88 -0.33 C3.13 -0.41, 3.56 0.99, 3.66 1.1" stroke="#000000" stroke-width="1" fill="none"></path></g><g stroke-linecap="round" transform="translate(132.6908365503782 18.11578280864515) rotate(285.00727485297307 3.560856171779051 11.216688383449878)"><path d="M3.23 0.89 C3.88 0.16, 4.06 -0.44, 4.8 0.44 C5.53 1.33, 7.37 3.81, 7.64 6.22 C7.9 8.62, 6.84 12.58, 6.39 14.88 C5.94 17.18, 5.49 18.79, 4.93 20.01 C4.38 21.24, 3.76 22.41, 3.03 22.24 C2.3 22.06, 1.13 20.79, 0.54 18.99 C-0.05 17.18, -0.45 13.89, -0.53 11.39 C-0.61 8.88, -0.63 5.98, 0.07 3.95 C0.77 1.91, 3.11 -0.32, 3.68 -0.81 C4.25 -1.31, 3.42 0.81, 3.49 0.98 M5.04 1.53 C5.87 1.55, 7 1.43, 7.24 3.18 C7.47 4.92, 6.68 9.35, 6.43 12.01 C6.18 14.66, 5.89 17.42, 5.73 19.09 C5.57 20.75, 6.31 21.63, 5.45 21.98 C4.6 22.33, 1.66 22.2, 0.6 21.2 C-0.47 20.19, -0.97 18.18, -0.92 15.94 C-0.88 13.71, 0.49 9.89, 0.84 7.78 C1.19 5.67, 0.77 4.38, 1.18 3.26 C1.59 2.14, 2.64 1.56, 3.31 1.06 C3.98 0.57, 5.34 0.2, 5.2 0.31" stroke="none" stroke-width="0" fill="#12b886"></path><path d="M3.82 0.24 C4.51 0.74, 6.77 2.46, 7.23 4.68 C7.7 6.9, 6.79 10.95, 6.63 13.57 C6.48 16.19, 6.73 18.88, 6.31 20.4 C5.89 21.91, 4.87 22.76, 4.12 22.64 C3.37 22.53, 2.65 21.14, 1.82 19.69 C0.98 18.23, -0.54 16.08, -0.89 13.9 C-1.23 11.72, -0.7 8.74, -0.27 6.61 C0.16 4.48, 0.89 2.17, 1.69 1.13 C2.5 0.09, 3.77 -0.04, 4.56 0.35 C5.35 0.75, 6.3 3.15, 6.41 3.48 M3.57 -1.11 C4.11 -1.22, 5.02 1.11, 5.6 2.61 C6.19 4.12, 7.06 5.65, 7.06 7.91 C7.07 10.16, 6 14.12, 5.61 16.14 C5.22 18.17, 5.27 19.21, 4.7 20.05 C4.13 20.9, 3.03 21.71, 2.19 21.22 C1.35 20.74, 0.1 18.81, -0.36 17.15 C-0.82 15.48, -0.97 13.48, -0.58 11.24 C-0.2 9, 1.31 5.62, 1.92 3.72 C2.54 1.82, 3.1 0.21, 3.11 -0.16 C3.13 -0.53, 1.88 1.51, 2.01 1.51" stroke="#000000" stroke-width="1" fill="none"></path></g><g stroke-linecap="round" transform="translate(134.71439559183762 13.405814510054455) rotate(313.5729917589093 3.560856171779051 11.216688383449878)"><path d="M4 -0.3 C4.69 -0.47, 4.65 1.8, 5.09 3.24 C5.53 4.68, 6.28 6.22, 6.65 8.33 C7.02 10.44, 7.68 13.71, 7.31 15.9 C6.94 18.08, 5.24 20.55, 4.4 21.46 C3.57 22.38, 2.96 22.21, 2.31 21.4 C1.65 20.59, 0.97 18.64, 0.48 16.58 C-0.01 14.51, -0.62 11.22, -0.62 9.01 C-0.62 6.8, -0.1 4.87, 0.48 3.34 C1.06 1.81, 2.16 0.17, 2.87 -0.19 C3.59 -0.55, 4.8 0.91, 4.78 1.17 M5.55 1.22 C6.18 1.13, 5.4 1.63, 5.9 3.14 C6.4 4.65, 8.3 7.6, 8.56 10.29 C8.83 12.99, 8.25 17.55, 7.51 19.31 C6.77 21.07, 5.06 20.76, 4.11 20.85 C3.15 20.94, 2.4 20.65, 1.8 19.83 C1.21 19.02, 0.83 18.08, 0.52 15.97 C0.22 13.86, -0.47 9.68, -0.03 7.18 C0.4 4.68, 2.27 1.93, 3.13 0.96 C3.98 -0.01, 4.93 1.71, 5.09 1.36 C5.26 1.02, 4.19 -1.28, 4.1 -1.1" stroke="none" stroke-width="0" fill="#12b886"></path><path d="M4.74 1.62 C5.4 2.45, 5.79 3.66, 6.34 5.75 C6.88 7.84, 7.97 11.68, 8.02 14.15 C8.08 16.63, 7.41 19.16, 6.67 20.6 C5.92 22.04, 4.58 23.18, 3.57 22.81 C2.56 22.43, 1.18 20.2, 0.61 18.37 C0.04 16.54, 0.09 14.13, 0.17 11.83 C0.24 9.53, 0.63 6.56, 1.07 4.55 C1.5 2.54, 2.16 0.01, 2.78 -0.23 C3.41 -0.46, 4.1 2.27, 4.83 3.14 C5.55 4.01, 7.02 4.99, 7.15 4.99 M3.68 0.78 C4.63 1.42, 6.81 3.97, 7.33 5.87 C7.84 7.77, 6.96 9.9, 6.75 12.18 C6.55 14.46, 6.84 17.92, 6.08 19.54 C5.33 21.17, 3.16 22.1, 2.21 21.95 C1.26 21.8, 0.82 20.24, 0.36 18.64 C-0.1 17.05, -0.72 14.41, -0.55 12.36 C-0.38 10.31, 0.85 8.31, 1.4 6.33 C1.95 4.36, 2.22 1.64, 2.76 0.5 C3.3 -0.63, 4.08 -0.64, 4.63 -0.47 C5.17 -0.29, 6.26 1.07, 6.05 1.55" stroke="#000000" stroke-width="1" fill="none"></path></g><g stroke-linecap="round" transform="translate(141.80981447421277 10.080688183869313) rotate(350.95835821913846 3.560856171779051 11.216688383449878)"><path d="M2.38 -0.33 C3.12 -1.19, 5.31 -0.53, 5.95 0.73 C6.59 1.99, 6.14 5.07, 6.21 7.25 C6.28 9.43, 6.49 11.63, 6.36 13.81 C6.22 16, 5.99 18.95, 5.39 20.36 C4.78 21.78, 3.55 22.65, 2.72 22.32 C1.9 21.99, 1.02 20.2, 0.46 18.37 C-0.09 16.53, -0.71 13.74, -0.59 11.31 C-0.47 8.87, 0.59 5.51, 1.17 3.76 C1.74 2.02, 2.34 1.6, 2.87 0.85 C3.39 0.1, 4.22 -0.84, 4.31 -0.73 M4.92 -0.31 C5.35 -0.28, 5.11 2.71, 5.36 4.64 C5.61 6.57, 6.05 9.16, 6.42 11.29 C6.79 13.41, 8.11 15.62, 7.57 17.4 C7.03 19.18, 4.27 21.25, 3.15 21.97 C2.04 22.69, 1.23 22.74, 0.88 21.72 C0.52 20.69, 1.24 17.83, 1.05 15.85 C0.85 13.87, -0.28 11.97, -0.31 9.85 C-0.35 7.72, -0.08 4.72, 0.82 3.09 C1.72 1.46, 4.8 0.43, 5.06 0.04 C5.32 -0.35, 2.38 0.6, 2.37 0.77" stroke="none" stroke-width="0" fill="#12b886"></path><path d="M3.8 -0.32 C4.57 -0.55, 4.44 1.25, 5.02 2.78 C5.6 4.31, 6.91 6.71, 7.28 8.88 C7.64 11.04, 7.49 13.81, 7.21 15.78 C6.93 17.75, 6.49 19.6, 5.59 20.69 C4.68 21.78, 2.71 22.67, 1.79 22.3 C0.88 21.93, 0.45 20.38, 0.07 18.48 C-0.3 16.58, -0.5 13.55, -0.47 10.91 C-0.44 8.27, -0.61 4.3, 0.26 2.63 C1.13 0.95, 3.92 1.1, 4.75 0.88 C5.57 0.66, 5.33 1.12, 5.19 1.31 M2.58 1.11 C3.21 0.47, 4.55 -0.27, 5.05 0.62 C5.55 1.52, 5.29 4.5, 5.55 6.49 C5.82 8.47, 6.68 10.39, 6.62 12.54 C6.56 14.69, 5.91 17.82, 5.2 19.37 C4.48 20.92, 3.1 21.67, 2.32 21.82 C1.54 21.97, 0.75 21.75, 0.52 20.25 C0.29 18.76, 0.93 15.42, 0.93 12.85 C0.93 10.28, 0.42 6.68, 0.49 4.82 C0.56 2.96, 0.88 2.61, 1.33 1.69 C1.77 0.78, 2.83 -0.6, 3.16 -0.67" stroke="#000000" stroke-width="1" fill="none"></path></g><g stroke-linecap="round" transform="translate(147.2498488729036 11.07856732193244) rotate(28.600145115860066 3.560856171779051 11.216688383449878)"><path d="M3.84 1.24 C4.4 1.67, 5.45 2.53, 6.1 4.27 C6.75 6.01, 7.8 9.21, 7.72 11.67 C7.63 14.13, 6.25 17.34, 5.58 19.05 C4.91 20.76, 4.39 21.8, 3.7 21.93 C3.01 22.05, 2.14 21.22, 1.44 19.8 C0.73 18.39, -0.24 15.57, -0.54 13.42 C-0.84 11.26, -0.66 8.98, -0.36 6.87 C-0.07 4.77, 0.22 1.69, 1.21 0.8 C2.2 -0.09, 5.07 1.43, 5.56 1.55 C6.04 1.67, 4.19 1.46, 4.1 1.52 M4.46 0.02 C5.16 0.38, 7.47 2.61, 8.1 4.99 C8.73 7.37, 8.64 12.06, 8.24 14.31 C7.83 16.56, 6.47 17.34, 5.68 18.49 C4.89 19.64, 4.18 20.89, 3.49 21.22 C2.8 21.54, 2.14 21.88, 1.53 20.45 C0.92 19.03, -0.23 15.26, -0.17 12.66 C-0.11 10.06, 1.32 6.67, 1.9 4.87 C2.49 3.08, 2.87 2.82, 3.36 1.88 C3.84 0.95, 4.49 -0.79, 4.81 -0.75 C5.13 -0.71, 5.32 1.63, 5.29 2.13" stroke="none" stroke-width="0" fill="#12b886"></path><path d="M1.8 0.37 C2.66 -0.69, 4.68 -0.02, 5.64 0.85 C6.6 1.72, 7.28 3.55, 7.56 5.6 C7.84 7.64, 7.67 10.97, 7.32 13.12 C6.97 15.28, 6.04 17.1, 5.46 18.54 C4.88 19.98, 4.45 21.59, 3.85 21.77 C3.25 21.95, 2.44 21.09, 1.86 19.61 C1.27 18.14, 0.72 15.08, 0.31 12.91 C-0.09 10.75, -1.09 8.7, -0.57 6.63 C-0.05 4.56, 2.81 1.57, 3.45 0.48 C4.09 -0.61, 3.26 0.02, 3.27 0.08 M4.63 0.15 C5.5 0.07, 5.39 0.67, 5.85 2.34 C6.32 4.01, 7.52 7.66, 7.4 10.18 C7.28 12.7, 5.78 15.62, 5.13 17.44 C4.48 19.27, 4.15 20.58, 3.52 21.11 C2.89 21.64, 1.75 21.4, 1.36 20.64 C0.97 19.88, 1.32 18.68, 1.18 16.55 C1.04 14.42, 0.47 10.54, 0.51 7.88 C0.54 5.23, 0.61 1.82, 1.39 0.62 C2.18 -0.58, 5 0.61, 5.21 0.67 C5.41 0.73, 2.87 1, 2.62 0.96" stroke="#000000" stroke-width="1" fill="none"></path></g><g stroke-linecap="round" transform="translate(159.17675436036484 412.47032712827195) rotate(459.3366413468935 3.560856171779051 11.216688383449878)"><path d="M1.41 0.97 C2.08 -0.01, 4.12 0.27, 4.86 0.9 C5.59 1.52, 5.38 2.77, 5.85 4.72 C6.32 6.68, 7.51 10.1, 7.67 12.62 C7.82 15.13, 7.49 18.11, 6.77 19.79 C6.06 21.47, 4.23 22.47, 3.39 22.68 C2.54 22.88, 2.29 22.27, 1.71 21.03 C1.13 19.78, 0.19 17.65, -0.11 15.21 C-0.4 12.76, -0.49 8.74, -0.06 6.33 C0.38 3.93, 1.99 1.71, 2.5 0.75 C3.01 -0.2, 2.98 0.59, 3 0.6 M1.88 -0.58 C2.27 -1.29, 2.87 -0.51, 3.82 0.78 C4.76 2.07, 7.04 4.71, 7.53 7.16 C8.02 9.62, 7.24 13.4, 6.76 15.5 C6.27 17.61, 5.33 18.64, 4.63 19.79 C3.93 20.95, 3.2 22.7, 2.56 22.44 C1.92 22.18, 1.43 20.25, 0.77 18.25 C0.12 16.25, -1.41 12.72, -1.39 10.43 C-1.37 8.13, 0.06 6, 0.89 4.48 C1.73 2.97, 3.51 1.82, 3.6 1.33 C3.68 0.84, 1.5 1.69, 1.41 1.55" stroke="none" stroke-width="0" fill="#12b886"></path><path d="M3.1 -0.64 C3.75 -1.25, 4.59 0.64, 5.22 1.88 C5.86 3.12, 6.47 4.69, 6.91 6.79 C7.35 8.89, 8.21 12.09, 7.86 14.48 C7.51 16.87, 5.47 19.71, 4.83 21.13 C4.19 22.56, 4.62 23.49, 4.02 23.01 C3.42 22.54, 1.95 20.13, 1.25 18.31 C0.54 16.48, -0.07 14.45, -0.2 12.05 C-0.32 9.66, -0.31 5.77, 0.47 3.92 C1.26 2.08, 4.02 1.45, 4.53 0.97 C5.04 0.49, 3.77 0.87, 3.54 1.04 M1.11 2.05 C1.6 0.46, 2.4 -1.19, 3.5 -0.96 C4.6 -0.74, 7.05 1.41, 7.71 3.41 C8.36 5.4, 7.7 8.27, 7.43 10.99 C7.15 13.71, 6.84 17.74, 6.04 19.72 C5.24 21.71, 3.36 22.8, 2.61 22.92 C1.86 23.04, 1.82 21.9, 1.55 20.45 C1.28 18.99, 1.39 16.21, 0.97 14.21 C0.56 12.21, -0.87 10.81, -0.96 8.47 C-1.05 6.14, -0.2 1.55, 0.45 0.19 C1.1 -1.16, 2.51 -0.25, 2.94 0.34" stroke="#000000" stroke-width="1" fill="none"></path></g><g stroke-linecap="round" transform="translate(17.5808429674629 413.65032120606054) rotate(263.0076429878816 3.560856171779051 11.216688383449878)"><path d="M2.39 0.19 C2.75 -0.68, 3.28 -0.15, 3.99 0.7 C4.69 1.54, 6.09 3.17, 6.6 5.28 C7.11 7.39, 7.21 10.76, 7.06 13.38 C6.91 15.99, 6.39 19.42, 5.7 20.97 C5.02 22.52, 3.64 22.91, 2.97 22.7 C2.3 22.49, 2.32 21.4, 1.69 19.72 C1.05 18.04, -0.76 15.03, -0.86 12.61 C-0.95 10.18, 0.51 7.11, 1.13 5.18 C1.76 3.24, 2.5 1.92, 2.9 1 C3.3 0.07, 3.43 -0.57, 3.55 -0.38 M4.47 1.34 C5.01 1.98, 5.55 2.79, 6.22 5 C6.88 7.2, 8.71 11.99, 8.44 14.58 C8.17 17.17, 5.51 19.01, 4.58 20.53 C3.65 22.06, 3.68 23.86, 2.88 23.74 C2.08 23.62, 0.08 21.68, -0.21 19.8 C-0.51 17.92, 0.88 14.94, 1.11 12.45 C1.33 9.96, 1.15 6.61, 1.15 4.87 C1.16 3.14, 0.68 2.7, 1.14 2.05 C1.61 1.4, 3.43 1.2, 3.94 0.97 C4.46 0.74, 3.93 0.81, 4.22 0.68" stroke="none" stroke-width="0" fill="#12b886"></path><path d="M4.79 0.61 C5.5 0.83, 6.6 3, 7.13 4.58 C7.66 6.15, 8.04 7.77, 7.97 10.08 C7.9 12.38, 7.27 16.37, 6.7 18.38 C6.13 20.4, 5.5 21.64, 4.53 22.16 C3.56 22.68, 1.73 22.66, 0.89 21.5 C0.05 20.34, -0.42 17.62, -0.49 15.18 C-0.56 12.74, -0.01 9.02, 0.49 6.88 C0.98 4.73, 1.91 3.38, 2.47 2.31 C3.04 1.25, 3.34 0.52, 3.87 0.5 C4.4 0.47, 5.46 1.82, 5.65 2.17 M3.48 0.99 C4.16 1.26, 6.29 2.62, 6.8 4.44 C7.3 6.26, 6.43 9.43, 6.49 11.91 C6.56 14.4, 7.61 17.79, 7.18 19.36 C6.74 20.92, 5 21.32, 3.9 21.31 C2.8 21.3, 1.03 20.45, 0.58 19.28 C0.12 18.1, 1.14 16.28, 1.19 14.28 C1.24 12.28, 0.85 9.38, 0.88 7.26 C0.91 5.14, 0.58 2.92, 1.35 1.54 C2.13 0.16, 4.99 -1, 5.54 -1 C6.09 -1, 4.8 1.2, 4.65 1.54" stroke="#000000" stroke-width="1" fill="none"></path></g><g stroke-linecap="round" transform="translate(19.703670433884213 417.69011128826605) rotate(221.72290654378773 3.560856171779051 11.216688383449878)"><path d="M2.54 -0.44 C3.12 -1.24, 4.23 0.32, 4.88 1.32 C5.54 2.32, 6.2 3.57, 6.47 5.56 C6.73 7.56, 6.6 10.98, 6.48 13.29 C6.37 15.59, 6.29 17.79, 5.78 19.39 C5.27 21, 4.26 22.98, 3.42 22.92 C2.58 22.87, 1.43 20.85, 0.77 19.05 C0.11 17.25, -0.63 14.36, -0.53 12.12 C-0.42 9.88, 0.73 7.5, 1.39 5.59 C2.04 3.68, 3.01 1.48, 3.38 0.67 C3.75 -0.14, 3.68 0.7, 3.61 0.73 M4.98 -0.86 C6.03 -0.24, 7.25 3.24, 7.45 5.66 C7.64 8.07, 6.53 11.41, 6.15 13.63 C5.78 15.86, 5.56 17.48, 5.19 19 C4.83 20.52, 4.71 22.41, 3.97 22.76 C3.24 23.1, 1.58 22.77, 0.78 21.06 C-0.02 19.36, -0.58 15.32, -0.84 12.53 C-1.11 9.74, -1.14 6.51, -0.8 4.31 C-0.47 2.1, 0.47 -0.18, 1.16 -0.71 C1.86 -1.24, 2.81 0.99, 3.37 1.14 C3.94 1.3, 4.56 0.24, 4.56 0.21" stroke="none" stroke-width="0" fill="#12b886"></path><path d="M2.26 -0.59 C2.87 -1.16, 4.46 0.67, 5.22 2.03 C5.98 3.39, 6.63 5.28, 6.82 7.56 C7.01 9.84, 6.73 13.51, 6.38 15.69 C6.04 17.88, 5.37 19.7, 4.73 20.67 C4.09 21.65, 3.25 21.99, 2.56 21.53 C1.86 21.06, 1.1 19.68, 0.55 17.89 C0 16.09, -0.83 13.04, -0.73 10.75 C-0.64 8.47, 0.51 5.95, 1.14 4.18 C1.76 2.42, 2.6 0.77, 3.02 0.16 C3.43 -0.46, 3.66 0.4, 3.61 0.49 M3.18 -0.82 C4.05 -0.72, 6.87 0.97, 7.41 2.9 C7.96 4.82, 6.41 8.42, 6.45 10.7 C6.48 12.99, 7.87 14.8, 7.63 16.62 C7.39 18.45, 6.1 20.92, 4.99 21.67 C3.89 22.43, 1.67 22.22, 0.98 21.16 C0.3 20.11, 0.86 17.21, 0.87 15.36 C0.88 13.5, 0.94 12.43, 1.04 10.04 C1.15 7.65, 1.08 2.67, 1.51 1.02 C1.94 -0.64, 3.38 0.01, 3.63 0.11 C3.88 0.22, 2.83 1.7, 3.03 1.64" stroke="#000000" stroke-width="1" fill="none"></path></g><g stroke-linecap="round" transform="translate(25.86294669051904 421.75100229443126) rotate(556.9793696997729 3.560856171779051 11.216688383449878)"><path d="M5.06 -0.77 C5.79 -0.45, 6.19 1.98, 6.4 4.12 C6.62 6.25, 6.43 9.7, 6.34 12.05 C6.25 14.39, 6.38 16.41, 5.87 18.2 C5.36 19.99, 3.84 22.31, 3.26 22.79 C2.69 23.28, 2.8 22.45, 2.41 21.09 C2.03 19.73, 1.31 16.93, 0.95 14.64 C0.59 12.36, 0.13 9.7, 0.26 7.4 C0.39 5.09, 1.16 1.89, 1.73 0.82 C2.29 -0.24, 3.11 0.92, 3.67 0.98 C4.22 1.04, 4.89 0.91, 5.03 1.16 M4.89 1.86 C5.54 2.58, 6.47 3.55, 6.66 5.68 C6.85 7.82, 6.29 12.09, 6.04 14.68 C5.78 17.28, 5.34 20.08, 5.14 21.28 C4.94 22.49, 5.34 22.24, 4.85 21.9 C4.37 21.56, 3.1 20.95, 2.23 19.25 C1.36 17.55, -0.32 13.99, -0.37 11.71 C-0.43 9.44, 1.53 7.63, 1.88 5.6 C2.22 3.57, 1.26 0.2, 1.67 -0.47 C2.09 -1.13, 3.62 1.47, 4.34 1.62 C5.07 1.76, 5.93 0.3, 6.02 0.43" stroke="none" stroke-width="0" fill="#12b886"></path><path d="M2.72 0.15 C3.4 -0.18, 3.95 0.57, 4.74 1.8 C5.53 3.02, 7.18 5.3, 7.46 7.5 C7.74 9.7, 6.89 12.57, 6.43 14.99 C5.96 17.4, 5.2 20.77, 4.66 22 C4.13 23.24, 3.76 23.1, 3.21 22.41 C2.65 21.72, 1.77 19.86, 1.31 17.87 C0.86 15.88, 0.61 12.73, 0.49 10.47 C0.37 8.2, 0.19 6, 0.59 4.28 C0.99 2.56, 2.25 0.91, 2.91 0.12 C3.57 -0.67, 4.33 -0.64, 4.56 -0.45 M1.79 0.88 C2.41 0.08, 4.23 -0.4, 5.24 0.31 C6.25 1.01, 7.69 3.09, 7.85 5.1 C8.02 7.11, 6.83 10.05, 6.23 12.36 C5.63 14.67, 4.99 17.52, 4.28 18.97 C3.57 20.42, 2.4 21, 1.97 21.07 C1.54 21.14, 2.12 20.97, 1.69 19.37 C1.27 17.76, -0.28 14, -0.58 11.44 C-0.89 8.88, -0.56 5.87, -0.15 4 C0.25 2.12, 1.35 0.56, 1.82 0.18 C2.3 -0.21, 2.78 1.44, 2.7 1.7" stroke="#000000" stroke-width="1" fill="none"></path></g><g stroke-linecap="round" transform="translate(33.09536737114945 420.3280657667086) rotate(515.6853955183658 3.560856171779051 11.216688383449878)"><path d="M2.56 0.07 C3.31 -0.35, 4.93 0.35, 5.78 1.81 C6.63 3.27, 7.59 6.49, 7.67 8.85 C7.75 11.2, 6.65 13.67, 6.25 15.94 C5.86 18.2, 5.89 21.34, 5.29 22.43 C4.68 23.53, 3.47 23.45, 2.63 22.53 C1.8 21.6, 0.68 19.1, 0.29 16.88 C-0.11 14.66, 0.21 11.73, 0.28 9.2 C0.34 6.67, -0.02 3.21, 0.69 1.72 C1.4 0.22, 3.9 0.39, 4.55 0.22 C5.2 0.05, 4.55 0.39, 4.61 0.68 M4.99 0.03 C5.76 -0.1, 5.43 0.66, 6.01 2.25 C6.59 3.84, 8.16 6.76, 8.47 9.55 C8.77 12.34, 8.6 16.73, 7.85 18.98 C7.1 21.23, 5 22.71, 3.96 23.04 C2.92 23.37, 2.43 21.92, 1.61 20.97 C0.79 20.02, -0.73 19.57, -0.95 17.34 C-1.18 15.12, 0.03 10.24, 0.26 7.61 C0.49 4.98, -0.32 2.61, 0.43 1.55 C1.18 0.49, 4.26 1.45, 4.75 1.26 C5.23 1.07, 3.4 0.21, 3.34 0.41" stroke="none" stroke-width="0" fill="#12b886"></path><path d="M2.74 -0.39 C3.53 -0.95, 4.51 0.52, 5.13 1.61 C5.74 2.71, 6.21 4.16, 6.43 6.18 C6.65 8.2, 6.44 11.26, 6.43 13.72 C6.43 16.17, 6.89 19.37, 6.39 20.91 C5.9 22.45, 4.38 23.19, 3.46 22.96 C2.54 22.73, 1.48 21.41, 0.86 19.54 C0.25 17.66, -0.3 14.33, -0.22 11.71 C-0.14 9.09, 0.76 5.73, 1.33 3.83 C1.91 1.92, 3.03 0.76, 3.24 0.25 C3.45 -0.26, 2.6 0.73, 2.62 0.78 M4.68 0.58 C5.42 1.24, 5.59 3.79, 5.85 5.51 C6.1 7.22, 6.36 8.9, 6.21 10.87 C6.06 12.84, 5.49 15.65, 4.94 17.31 C4.39 18.98, 3.68 20.23, 2.91 20.88 C2.13 21.54, 0.78 22.37, 0.3 21.22 C-0.18 20.07, 0.24 16.5, 0.02 14 C-0.19 11.5, -1.11 8.47, -1 6.24 C-0.89 4.01, -0.14 1.59, 0.69 0.62 C1.52 -0.34, 3.21 0.69, 3.97 0.46 C4.73 0.22, 5.19 -1.05, 5.26 -0.78" stroke="#000000" stroke-width="1" fill="none"></path></g><g stroke-linecap="round" transform="translate(157.6284886100243 417.35719378639965) rotate(127.90235825282967 3.560856171779051 11.216688383449878)"><path d="M2.54 0.64 C3.41 0.53, 5.04 1.07, 5.68 2.59 C6.32 4.11, 6.38 7.54, 6.39 9.76 C6.4 11.99, 6.16 14.05, 5.74 15.95 C5.32 17.86, 4.44 20.19, 3.88 21.2 C3.32 22.22, 2.98 22.72, 2.37 22.05 C1.76 21.38, 0.64 19.18, 0.22 17.17 C-0.21 15.16, -0.31 12.49, -0.19 9.99 C-0.08 7.49, 0.32 3.75, 0.88 2.18 C1.45 0.62, 2.66 0.95, 3.18 0.6 C3.7 0.26, 3.96 0.1, 4 0.12 M3.64 0.91 C4.61 1.72, 6.88 3.33, 7.54 5.37 C8.2 7.41, 7.69 10.68, 7.58 13.16 C7.48 15.64, 7.6 18.51, 6.93 20.25 C6.27 21.99, 4.74 23.6, 3.58 23.62 C2.42 23.64, 0.52 22.3, -0.03 20.36 C-0.58 18.43, -0.02 14.63, 0.3 12 C0.62 9.36, 1.64 6.25, 1.88 4.55 C2.12 2.86, 1.47 2.36, 1.72 1.82 C1.97 1.28, 2.95 1.4, 3.41 1.32 C3.87 1.24, 4.23 1.38, 4.47 1.33" stroke="none" stroke-width="0" fill="#12b886"></path><path d="M3.91 -0.68 C4.65 -0.38, 6.33 2.68, 7 4.41 C7.66 6.13, 7.89 7.31, 7.9 9.68 C7.92 12.04, 7.77 16.62, 7.1 18.57 C6.43 20.52, 4.62 20.9, 3.88 21.36 C3.14 21.82, 3.15 22.18, 2.66 21.32 C2.17 20.47, 1.51 18.32, 0.94 16.22 C0.38 14.11, -0.78 11.12, -0.73 8.68 C-0.68 6.24, 0.44 2.87, 1.25 1.57 C2.06 0.27, 3.53 1.21, 4.14 0.89 C4.76 0.58, 5.09 -0.28, 4.94 -0.31 M5.67 -0.32 C6.49 0.37, 5.98 4.19, 6.37 6.23 C6.76 8.27, 8 9.91, 8.01 11.94 C8.02 13.97, 6.98 16.75, 6.43 18.41 C5.87 20.08, 5.49 21.9, 4.7 21.92 C3.9 21.93, 2.23 19.78, 1.68 18.49 C1.12 17.21, 1.44 16.59, 1.37 14.22 C1.3 11.85, 1.17 6.79, 1.25 4.29 C1.34 1.8, 1.29 -0.03, 1.86 -0.75 C2.43 -1.47, 4.07 -0.42, 4.7 -0.03 C5.32 0.35, 5.85 1.07, 5.6 1.57" stroke="#000000" stroke-width="1" fill="none"></path></g><g stroke-linecap="round" transform="translate(150.89634709211953 421.36714450733984) rotate(165.287724713059 3.560856171779051 11.216688383449878)"><path d="M2.52 1.2 C3.22 0.05, 3.64 -0.79, 4.4 -0.43 C5.15 -0.07, 6.73 1.52, 7.07 3.36 C7.41 5.21, 6.65 8.08, 6.43 10.63 C6.21 13.19, 6.09 16.78, 5.73 18.67 C5.37 20.57, 4.93 21.73, 4.28 22.03 C3.63 22.33, 2.44 21.77, 1.84 20.5 C1.24 19.22, 1.05 16.7, 0.69 14.36 C0.33 12.02, -0.67 8.71, -0.32 6.46 C0.04 4.2, 2.36 1.84, 2.82 0.83 C3.28 -0.19, 2.57 0.08, 2.42 0.36 M3.13 1.21 C4.04 0.84, 4.56 0.65, 5.23 1.78 C5.9 2.9, 6.75 5.82, 7.14 7.95 C7.54 10.07, 7.67 12.64, 7.59 14.53 C7.51 16.43, 7.35 17.97, 6.66 19.31 C5.97 20.65, 4.65 22.41, 3.46 22.56 C2.26 22.72, 0.27 22.13, -0.53 20.23 C-1.32 18.33, -1.7 14.01, -1.31 11.16 C-0.93 8.3, 0.97 4.95, 1.77 3.1 C2.58 1.25, 3.28 0.46, 3.54 0.06 C3.8 -0.33, 3.56 0.28, 3.34 0.74" stroke="none" stroke-width="0" fill="#12b886"></path><path d="M4.14 1.66 C5.01 2.51, 7.28 4.62, 7.62 6.7 C7.97 8.79, 6.4 12.05, 6.21 14.18 C6.01 16.32, 7.05 18.03, 6.46 19.52 C5.87 21, 3.56 22.99, 2.69 23.11 C1.82 23.23, 1.61 22.09, 1.25 20.23 C0.89 18.36, 0.56 14.49, 0.55 11.94 C0.53 9.4, 0.9 6.86, 1.17 4.96 C1.43 3.07, 1.34 1.08, 2.14 0.59 C2.95 0.09, 5.55 1.87, 5.99 2 C6.43 2.12, 5.01 1.16, 4.77 1.32 M1.43 0.38 C2.17 -0.51, 4.86 0.68, 5.54 1.66 C6.23 2.64, 5.53 4.16, 5.56 6.28 C5.59 8.4, 5.78 12.07, 5.74 14.4 C5.7 16.73, 5.9 18.72, 5.3 20.28 C4.7 21.83, 2.64 23.7, 2.12 23.74 C1.6 23.78, 2.76 22.37, 2.17 20.51 C1.59 18.65, -0.85 15.09, -1.38 12.58 C-1.9 10.06, -1.49 7.28, -0.97 5.44 C-0.45 3.6, 1.03 2.52, 1.72 1.51 C2.4 0.51, 2.78 -0.53, 3.13 -0.59" stroke="#000000" stroke-width="1" fill="none"></path></g><g stroke-linecap="round" transform="translate(145.38433417888996 420.91167697006404) rotate(202.9295116097806 3.560856171779051 11.216688383449878)"><path d="M2.77 0.3 C3.52 -0.26, 4.09 1.08, 4.62 2.12 C5.15 3.15, 5.72 4.48, 5.95 6.52 C6.17 8.57, 6.06 11.98, 5.96 14.4 C5.86 16.83, 5.89 19.72, 5.35 21.06 C4.81 22.4, 3.49 22.79, 2.7 22.45 C1.92 22.12, 1.14 21.02, 0.63 19.08 C0.13 17.14, -0.27 13.21, -0.34 10.82 C-0.4 8.43, -0.33 6.55, 0.23 4.73 C0.79 2.92, 2.59 0.76, 3.03 -0.05 C3.47 -0.87, 2.76 -0.27, 2.87 -0.13 M3.02 1.04 C3.92 -0.05, 4.26 -0.05, 5.01 0.69 C5.75 1.43, 7.16 3.36, 7.5 5.48 C7.84 7.61, 7.5 11.11, 7.03 13.46 C6.57 15.81, 5.18 18.32, 4.69 19.57 C4.19 20.81, 4.36 21.02, 4.07 20.94 C3.78 20.85, 3.7 20.02, 2.95 19.04 C2.2 18.07, 0.23 17.06, -0.42 15.08 C-1.07 13.1, -1.32 9.4, -0.93 7.15 C-0.55 4.9, 1.33 2.65, 1.88 1.55 C2.43 0.46, 2.06 0.66, 2.36 0.59" stroke="none" stroke-width="0" fill="#12b886"></path><path d="M4.13 0.96 C4.99 0.62, 5.82 -0.12, 6.41 1.23 C7 2.58, 7.71 6.74, 7.68 9.07 C7.66 11.41, 6.59 13.2, 6.27 15.26 C5.94 17.33, 6.23 20.26, 5.73 21.47 C5.23 22.68, 4.26 23.08, 3.27 22.54 C2.27 22, 0.35 20.34, -0.24 18.23 C-0.84 16.12, -0.55 12.24, -0.33 9.87 C-0.11 7.5, 0.23 5.74, 1.08 4 C1.94 2.25, 4.3 -0.05, 4.81 -0.62 C5.31 -1.19, 4.12 0.38, 4.11 0.58 M3.71 0.79 C4.44 0.88, 6.42 0.98, 7.08 2.38 C7.74 3.78, 7.59 6.7, 7.66 9.2 C7.74 11.7, 8 15.44, 7.52 17.36 C7.04 19.28, 5.48 19.92, 4.77 20.73 C4.06 21.53, 3.9 23.27, 3.28 22.2 C2.67 21.12, 1.69 16.88, 1.09 14.28 C0.5 11.67, -0.38 8.75, -0.3 6.57 C-0.23 4.39, 0.69 2.16, 1.55 1.2 C2.4 0.24, 4.68 0.73, 4.84 0.79 C5.01 0.86, 2.77 1.66, 2.52 1.58" stroke="#000000" stroke-width="1" fill="none"></path></g><g stroke-linecap="round" transform="translate(137.31992818014805 350.78074368455793) rotate(345.4995275964235 8.92792609080169 40.00395566465954)"><path d="M5.63 1.93 C7.37 -0.89, 10.82 0.81, 12.64 4 C14.46 7.19, 15.62 13.71, 16.55 21.06 C17.49 28.41, 18.53 39.67, 18.24 48.12 C17.94 56.56, 16.47 66.33, 14.79 71.73 C13.11 77.13, 10.15 81.01, 8.15 80.5 C6.16 79.99, 4.01 74.68, 2.8 68.68 C1.59 62.69, 1.11 52.89, 0.9 44.51 C0.69 36.14, 0.15 25.76, 1.54 18.44 C2.93 11.12, 7.41 3.35, 9.22 0.59 C11.03 -2.16, 12.28 1.34, 12.39 1.9 M6.5 0.58 C8.24 -1.7, 11.97 -0.03, 13.97 4.37 C15.97 8.77, 17.88 19.02, 18.5 26.97 C19.12 34.93, 18.74 44.39, 17.72 52.11 C16.69 59.83, 14.13 68.73, 12.37 73.28 C10.62 77.84, 8.94 80.61, 7.19 79.44 C5.45 78.27, 3.14 72.68, 1.89 66.27 C0.63 59.87, -0.17 49.69, -0.33 41.01 C-0.5 32.32, -0.23 20.89, 0.92 14.15 C2.08 7.4, 5.51 2.59, 6.6 0.52 C7.7 -1.54, 7.54 1.27, 7.49 1.76" stroke="none" stroke-width="0" fill="#12b886"></path><path d="M8.41 0.92 C10 -0.47, 11.68 1.39, 13.34 6.28 C15 11.18, 17.79 21.78, 18.36 30.3 C18.94 38.82, 17.85 49.87, 16.81 57.38 C15.77 64.89, 13.89 71.92, 12.12 75.38 C10.36 78.84, 8.07 80.32, 6.2 78.16 C4.33 76, 2.07 69.31, 0.89 62.42 C-0.3 55.52, -1.12 45.35, -0.91 36.79 C-0.71 28.24, 0.45 17.07, 2.1 11.07 C3.75 5.06, 7.73 2.37, 9.01 0.79 C10.29 -0.8, 9.86 1.04, 9.79 1.56 M10.51 3.2 C12.41 5.13, 15.54 11.75, 16.75 18.77 C17.96 25.78, 17.88 36.69, 17.77 45.29 C17.67 53.88, 17.6 64.46, 16.12 70.32 C14.65 76.17, 11.09 80.47, 8.92 80.41 C6.74 80.35, 4.58 75.53, 3.07 69.96 C1.56 64.39, 0.28 55.34, -0.16 46.98 C-0.6 38.61, -0.61 27.36, 0.45 19.75 C1.52 12.14, 4.52 4.41, 6.23 1.33 C7.94 -1.75, 9.8 1.04, 10.7 1.29 C11.6 1.55, 11.24 2.05, 11.62 2.86" stroke="#000000" stroke-width="1" fill="none"></path></g><g stroke-linecap="round" transform="translate(133.4360648149691 286.1834281500297) rotate(10.65390102722339 11.15991154319238 41.19048189967245)"><path d="M11.37 0.25 C13.72 -0.16, 17.57 3.71, 19.26 9.48 C20.94 15.25, 21.36 26.05, 21.49 34.88 C21.62 43.71, 21.15 55.01, 20.03 62.47 C18.91 69.93, 16.8 76.77, 14.77 79.65 C12.73 82.53, 10.15 82.62, 7.82 79.75 C5.49 76.87, 2.15 70.04, 0.8 62.4 C-0.56 54.76, -0.87 42.69, -0.31 33.91 C0.25 25.13, 1.96 15.22, 4.16 9.74 C6.36 4.26, 11.49 2.23, 12.9 1.03 C14.31 -0.17, 12.72 2.05, 12.6 2.53 M14.05 2.25 C16.03 4.34, 18.12 12, 19.69 19.24 C21.27 26.47, 23.78 37.28, 23.49 45.67 C23.2 54.05, 20.05 63.51, 17.95 69.55 C15.86 75.6, 13.17 81.15, 10.94 81.95 C8.71 82.74, 6.33 79.49, 4.58 74.33 C2.83 69.17, 0.94 59.68, 0.43 51 C-0.09 42.31, 0.57 30.22, 1.49 22.22 C2.41 14.22, 3.87 6.41, 5.96 3 C8.04 -0.41, 12.59 2.05, 13.99 1.76 C15.4 1.47, 14.59 0.47, 14.38 1.24" stroke="none" stroke-width="0" fill="#12b886"></path><path d="M15.2 1.18 C17.29 3.24, 18.43 12.2, 19.76 19.69 C21.09 27.17, 23.22 37.58, 23.18 46.09 C23.13 54.6, 21.53 64.8, 19.49 70.76 C17.46 76.72, 13.57 81.43, 10.96 81.85 C8.35 82.26, 5.77 78.66, 3.86 73.25 C1.95 67.84, -0.06 57.95, -0.5 49.4 C-0.94 40.84, 0.13 29.68, 1.2 21.92 C2.28 14.16, 3.4 6.01, 5.96 2.84 C8.52 -0.32, 14.74 2.36, 16.58 2.94 C18.42 3.52, 17.25 5.47, 17.02 6.35 M9.27 1.45 C11.14 -0.92, 13.26 0.03, 15.05 4.04 C16.85 8.04, 18.9 17.46, 20.03 25.47 C21.16 33.47, 22.19 43.83, 21.83 52.07 C21.48 60.32, 20 69.96, 17.89 74.93 C15.78 79.9, 11.67 82.81, 9.16 81.88 C6.66 80.96, 4.47 75.55, 2.85 69.38 C1.23 63.22, -0.22 53.78, -0.55 44.9 C-0.89 36.01, -0.47 23.4, 0.85 16.1 C2.17 8.8, 6.14 3.2, 7.37 1.1 C8.6 -1, 8.01 2.62, 8.24 3.48" stroke="#000000" stroke-width="1" fill="none"></path></g><g stroke-linecap="round" transform="translate(33.23684220482073 348.84177255451084) rotate(20.990447157283242 10.203973224690571 41.450237785765864)"><path d="M7.24 2.32 C9.04 -1.33, 10.98 -1.37, 13.01 1.77 C15.05 4.91, 18.24 13.46, 19.45 21.16 C20.65 28.85, 20.54 39.4, 20.24 47.94 C19.93 56.48, 19.15 66.68, 17.62 72.41 C16.09 78.14, 13.51 82.24, 11.07 82.32 C8.64 82.39, 4.9 78.34, 3.03 72.86 C1.16 67.38, 0.21 58.22, -0.15 49.42 C-0.51 40.63, -0.3 28.03, 0.85 20.06 C2 12.1, 5.39 4.85, 6.75 1.66 C8.11 -1.53, 9 0.31, 9.02 0.91 M10.21 0.09 C12.27 -0.26, 15.05 4.78, 16.74 10.23 C18.42 15.69, 19.84 24.45, 20.33 32.81 C20.81 41.16, 20.76 52.7, 19.65 60.35 C18.53 68.01, 15.56 75.48, 13.65 78.75 C11.74 82.03, 10.34 82.46, 8.18 80 C6.03 77.54, 1.97 71.27, 0.7 63.97 C-0.56 56.67, -0.1 45.09, 0.57 36.21 C1.24 27.33, 3.12 16.49, 4.72 10.69 C6.32 4.89, 9.45 3.14, 10.18 1.41 C10.9 -0.32, 8.98 0.07, 9.06 0.3" stroke="none" stroke-width="0" fill="#12b886"></path><path d="M11.44 1.79 C13.54 3.15, 16.51 9.11, 18.12 16.02 C19.72 22.93, 21.1 34.36, 21.09 43.27 C21.09 52.17, 19.7 62.92, 18.09 69.45 C16.47 75.98, 13.45 81.28, 11.4 82.44 C9.36 83.6, 7.77 80.93, 5.81 76.41 C3.85 71.89, 0.32 63.69, -0.38 55.32 C-1.07 46.95, 0.81 34.61, 1.66 26.18 C2.51 17.75, 2.8 8.58, 4.73 4.74 C6.66 0.9, 11.5 3.22, 13.25 3.15 C15 3.08, 15.23 3.96, 15.22 4.33 M7.43 0.64 C9.25 -2.27, 11.51 0.67, 13.42 4.5 C15.34 8.32, 18.03 15.83, 18.91 23.61 C19.79 31.39, 19.01 42.75, 18.71 51.16 C18.41 59.57, 18.41 68.78, 17.1 74.07 C15.8 79.35, 13.02 83.3, 10.88 82.87 C8.75 82.43, 6.2 77.69, 4.3 71.46 C2.39 65.24, -0.13 54.51, -0.56 45.53 C-0.99 36.55, 0.29 24.82, 1.71 17.59 C3.13 10.36, 7.11 4.57, 7.96 2.14 C8.82 -0.28, 7.06 2.59, 6.85 3.04" stroke="#000000" stroke-width="1" fill="none"></path></g><g stroke-linecap="round" transform="translate(36.49567989249908 282.3032263584395) rotate(349.3460989727766 11.572784595818575 42.714368530426015)"><path d="M16.78 4.65 C18.78 8.44, 21.31 19.31, 22.24 27.72 C23.16 36.13, 23.13 46.5, 22.33 55.11 C21.52 63.72, 19.33 74.31, 17.39 79.37 C15.45 84.44, 12.97 86.98, 10.68 85.5 C8.4 84.02, 5.32 77.53, 3.7 70.51 C2.08 63.5, 1.09 52.38, 0.96 43.38 C0.82 34.39, 1.45 23.68, 2.89 16.55 C4.33 9.42, 6.84 1.92, 9.62 0.58 C12.41 -0.77, 18.05 6.06, 19.59 8.49 C21.14 10.91, 19.32 14.55, 18.92 15.14 M14.11 -0.22 C16.18 0.92, 18.19 8.62, 19.61 15.55 C21.02 22.48, 22.19 32.42, 22.57 41.36 C22.95 50.29, 23.27 61.8, 21.88 69.15 C20.49 76.51, 16.81 83.48, 14.23 85.51 C11.66 87.53, 8.84 85.76, 6.43 81.31 C4.03 76.87, 0.66 67.65, -0.19 58.85 C-1.05 50.06, 0.4 37.04, 1.29 28.54 C2.18 20.04, 3.41 12.51, 5.14 7.83 C6.88 3.15, 10.34 1.73, 11.71 0.47 C13.07 -0.8, 13.13 -0.71, 13.32 0.23" stroke="none" stroke-width="0" fill="#12b886"></path><path d="M15.5 0.65 C17.77 2.31, 20.19 10.8, 21.33 18.35 C22.47 25.89, 22.56 36.73, 22.34 45.93 C22.13 55.13, 21.65 66.88, 20.05 73.54 C18.44 80.2, 15.21 85.04, 12.72 85.89 C10.22 86.74, 7 84, 5.09 78.63 C3.18 73.25, 1.86 62.75, 1.25 53.65 C0.63 44.54, 0.39 32.4, 1.38 24 C2.38 15.6, 4.8 6.7, 7.22 3.24 C9.65 -0.22, 14.29 2.77, 15.95 3.22 C17.61 3.67, 17.37 5.33, 17.19 5.95 M13.9 -0.44 C16.11 0.78, 17.56 9.04, 19.33 15.98 C21.09 22.92, 24.4 32.06, 24.48 41.21 C24.56 50.37, 21.4 63.43, 19.83 70.91 C18.26 78.39, 17.3 84.44, 15.04 86.08 C12.78 87.73, 8.85 85.62, 6.25 80.79 C3.66 75.96, 0.4 65.93, -0.55 57.11 C-1.49 48.28, -0.54 36.3, 0.6 27.84 C1.75 19.38, 4.13 10.85, 6.32 6.33 C8.51 1.81, 12.72 1.38, 13.73 0.74 C14.74 0.09, 12.72 1.64, 12.38 2.45" stroke="#000000" stroke-width="1" fill="none"></path></g><g stroke-linecap="round" transform="translate(44.865118777518546 221.32947586349772) rotate(208.73536621804286 9.258224416596136 41.48394546820484)"><path d="M14.51 4.41 C16.48 7.86, 18.13 16.63, 18.73 24.8 C19.33 32.98, 18.87 44.72, 18.11 53.45 C17.35 62.18, 15.89 72.38, 14.15 77.19 C12.41 82, 9.63 83.51, 7.66 82.31 C5.69 81.11, 3.63 76.33, 2.32 69.98 C1.01 63.62, -0.3 53.28, -0.2 44.18 C-0.1 35.07, 1.62 22.51, 2.92 15.35 C4.21 8.2, 5.61 2.38, 7.59 1.25 C9.57 0.12, 13.33 6.88, 14.78 8.58 C16.23 10.28, 16.57 11.15, 16.3 11.45 M12.05 3 C13.61 4.61, 15.23 9.96, 16.47 17.3 C17.72 24.64, 19.68 38.08, 19.54 47.03 C19.39 55.98, 17.19 64.96, 15.61 71.02 C14.02 77.07, 11.9 82.6, 10.03 83.38 C8.15 84.16, 6.21 80.91, 4.36 75.71 C2.51 70.52, -0.56 61.07, -1.05 52.22 C-1.54 43.36, 0.29 30.71, 1.43 22.59 C2.58 14.47, 4.14 7.09, 5.82 3.49 C7.5 -0.11, 10.66 1.1, 11.52 1.02 C12.38 0.93, 11.1 2.45, 11.01 2.99" stroke="none" stroke-width="0" fill="#12b886"></path><path d="M9.17 0.63 C11.01 0.36, 12.97 4.43, 14.62 10.41 C16.26 16.4, 18.78 27.76, 19.05 36.52 C19.31 45.28, 17.22 55.49, 16.21 62.98 C15.19 70.46, 14.75 78.63, 12.96 81.44 C11.16 84.25, 7.53 83.28, 5.43 79.84 C3.33 76.4, 1.25 68.78, 0.38 60.8 C-0.49 52.82, -0.46 40.69, 0.21 31.96 C0.89 23.23, 2.44 13.62, 4.43 8.43 C6.42 3.24, 10.51 1.18, 12.14 0.82 C13.77 0.46, 14.42 5.44, 14.19 6.26 M8.01 0.02 C9.58 -0.89, 12.16 3.34, 13.96 8.91 C15.76 14.49, 18.24 24.93, 18.8 33.48 C19.35 42.04, 18.33 52.73, 17.29 60.27 C16.24 67.82, 14.15 75.1, 12.53 78.74 C10.92 82.38, 9.3 84.71, 7.62 82.11 C5.94 79.52, 3.85 70.83, 2.44 63.18 C1.03 55.52, -0.77 45.1, -0.86 36.2 C-0.96 27.29, 0.33 15.9, 1.87 9.76 C3.41 3.61, 7.28 1.02, 8.36 -0.66 C9.43 -2.35, 8.15 -1.41, 8.34 -0.37" stroke="#000000" stroke-width="1" fill="none"></path></g><g stroke-linecap="round" transform="translate(127.11378732007074 221.78558100010216) rotate(152.9135992651235 9.83993416915365 39.97145054445872)"><path d="M12.18 1.78 C14.22 2.87, 15.95 8.33, 17.3 14.82 C18.65 21.32, 20.23 32.13, 20.27 40.77 C20.32 49.42, 19.17 60.14, 17.59 66.69 C16.02 73.25, 13.01 79.05, 10.83 80.12 C8.66 81.19, 6.12 77.86, 4.53 73.12 C2.94 68.38, 1.91 59.7, 1.3 51.68 C0.68 43.65, 0.15 32.71, 0.85 24.97 C1.55 17.22, 3.36 9.13, 5.51 5.2 C7.67 1.26, 12.23 1.47, 13.77 1.33 C15.32 1.19, 15.03 3.51, 14.78 4.36 M12.94 0.52 C15.24 2.24, 17.87 10.88, 19.04 17.77 C20.22 24.66, 20.55 33.68, 20.01 41.85 C19.46 50.01, 17.35 60.44, 15.77 66.74 C14.19 73.05, 12.49 78.6, 10.53 79.67 C8.57 80.74, 5.78 77.88, 4.03 73.15 C2.28 68.42, 0.75 59.65, 0.04 51.3 C-0.67 42.94, -1.03 30.93, -0.22 23.02 C0.59 15.11, 2.79 7.41, 4.9 3.82 C7.02 0.22, 11.42 1.96, 12.45 1.46 C13.49 0.96, 11.02 0.24, 11.1 0.8" stroke="none" stroke-width="0" fill="#12b886"></path><path d="M8.78 -0.75 C10.86 -1.56, 14.94 3.77, 16.68 9.25 C18.42 14.74, 19.01 24.06, 19.21 32.15 C19.42 40.23, 18.94 50.38, 17.92 57.75 C16.9 65.12, 15.08 73.12, 13.1 76.37 C11.13 79.63, 8.18 79.79, 6.09 77.29 C4.01 74.78, 1.67 68.6, 0.59 61.35 C-0.49 54.1, -0.75 42.17, -0.38 33.8 C-0.01 25.44, 1.03 16.75, 2.82 11.18 C4.62 5.61, 8.83 1.81, 10.39 0.4 C11.95 -1, 11.94 2.18, 12.18 2.76 M12.89 0.9 C15.08 2.46, 16.8 9.73, 18.15 17.07 C19.5 24.4, 21.28 36.16, 20.99 44.94 C20.7 53.71, 18.24 64.06, 16.42 69.73 C14.61 75.4, 12.27 78.68, 10.13 78.96 C7.98 79.24, 5.34 76.56, 3.57 71.43 C1.81 66.31, -0.12 56.7, -0.46 48.2 C-0.8 39.7, 0.65 28.13, 1.53 20.45 C2.41 12.77, 3 5.26, 4.83 2.12 C6.67 -1.02, 11 1.53, 12.54 1.62 C14.08 1.71, 13.92 1.74, 14.06 2.65" stroke="#000000" stroke-width="1" fill="none"></path></g><g stroke-linecap="round" transform="translate(12.415235685111952 45.23315066627444) rotate(113.09356028448181 30.66292529854678 11.108027403375019)"><path d="M20.8 -0.47 C26.55 -1.44, 36.63 -0.72, 42.84 0.42 C49.05 1.56, 55.26 4.24, 58.06 6.4 C60.86 8.56, 61.03 11, 59.63 13.36 C58.22 15.72, 54.53 19.01, 49.64 20.56 C44.75 22.11, 36.9 22.83, 30.29 22.68 C23.68 22.54, 15.11 21.51, 9.99 19.71 C4.86 17.9, 0.45 14.24, -0.47 11.84 C-1.4 9.45, 0.58 7.09, 4.42 5.33 C8.26 3.57, 19.43 2.04, 22.56 1.28 C25.7 0.52, 23.17 0.63, 23.24 0.79 M36.09 1.08 C42 1.41, 50.53 1.37, 54.55 3.3 C58.58 5.23, 60.29 10.07, 60.25 12.66 C60.21 15.25, 58.38 17.31, 54.3 18.84 C50.22 20.38, 42.22 21.75, 35.78 21.87 C29.33 21.98, 21.37 20.67, 15.63 19.53 C9.89 18.39, 3.6 17.38, 1.31 15.03 C-0.98 12.68, -0.71 7.56, 1.91 5.41 C4.52 3.26, 11.07 3, 17 2.14 C22.94 1.28, 34.09 0.42, 37.51 0.25 C40.93 0.09, 37.92 1, 37.53 1.17" stroke="none" stroke-width="0" fill="#12b886"></path><path d="M29.43 0.01 C35.94 -0.02, 45.52 1.03, 50.81 2.43 C56.11 3.82, 60.2 5.93, 61.2 8.38 C62.21 10.82, 60.08 14.89, 56.84 17.1 C53.59 19.31, 47.61 21.01, 41.75 21.63 C35.89 22.25, 27.78 21.6, 21.66 20.82 C15.54 20.03, 8.46 18.72, 5.04 16.92 C1.62 15.13, 0.16 12.28, 1.13 10.04 C2.1 7.81, 5.1 5.04, 10.88 3.51 C16.65 1.98, 31.07 1.36, 35.78 0.84 C40.49 0.32, 39.15 0.33, 39.12 0.37 M36.25 -0.19 C42.52 0.04, 50.87 2.9, 54.93 4.85 C58.98 6.8, 61 9.14, 60.58 11.49 C60.17 13.83, 56.48 17.16, 52.43 18.93 C48.38 20.71, 42.6 21.93, 36.27 22.14 C29.94 22.35, 20.42 21.4, 14.44 20.2 C8.46 19, 2.32 17.41, 0.4 14.96 C-1.53 12.51, 0.49 7.55, 2.89 5.52 C5.3 3.49, 8.97 3.43, 14.81 2.77 C20.66 2.1, 34.44 1.93, 37.97 1.55 C41.49 1.18, 36.12 0.34, 35.96 0.5" stroke="#000000" stroke-width="1" fill="none"></path></g><g stroke-linecap="round" transform="translate(16.736697993204757 77.37397417250253) rotate(57.49487459926502 30.14877646278495 15.888778196644708)"><path d="M32.9 0.96 C39.36 1.17, 48.27 3.56, 52.89 5.8 C57.51 8.05, 60.29 11.28, 60.63 14.45 C60.96 17.61, 58.75 22.11, 54.9 24.8 C51.05 27.48, 43.91 29.69, 37.53 30.56 C31.14 31.43, 22.3 31.48, 16.61 30 C10.91 28.52, 6.1 24.9, 3.37 21.68 C0.64 18.45, -1.58 13.73, 0.23 10.63 C2.04 7.54, 7.64 4.65, 14.23 3.11 C20.81 1.57, 34.6 1.53, 39.75 1.37 C44.9 1.21, 45.31 1.86, 45.13 2.13 M18.66 1.83 C24.12 0.2, 33.68 -1.49, 39.7 -0.43 C45.71 0.62, 51.18 5.06, 54.74 8.17 C58.3 11.27, 61.5 14.93, 61.04 18.2 C60.58 21.48, 57.03 25.71, 51.98 27.8 C46.93 29.89, 37.41 30.64, 30.74 30.77 C24.07 30.91, 17.05 30.37, 11.95 28.62 C6.86 26.87, 1.46 23.66, 0.17 20.27 C-1.12 16.88, 1.34 11.55, 4.21 8.27 C7.07 4.99, 14.85 1.8, 17.34 0.6 C19.83 -0.6, 18.98 0.73, 19.14 1.07" stroke="none" stroke-width="0" fill="#12b886"></path><path d="M27.32 0.38 C33.36 -0.1, 40.19 1.19, 45.59 2.88 C50.98 4.57, 57.77 7.31, 59.69 10.5 C61.61 13.68, 59.67 18.59, 57.09 21.99 C54.51 25.39, 49.92 29.17, 44.21 30.89 C38.49 32.61, 29.26 33.26, 22.8 32.29 C16.34 31.32, 9.31 28.02, 5.44 25.08 C1.58 22.13, -0.89 17.8, -0.39 14.61 C0.11 11.42, 3.27 8.41, 8.45 5.94 C13.62 3.47, 26.29 0.53, 30.64 -0.22 C34.99 -0.96, 34.32 1.24, 34.52 1.48 M45.24 0.3 C50.75 1.28, 56.04 4.9, 58.48 8.44 C60.92 11.99, 61.88 18.24, 59.87 21.56 C57.87 24.89, 51.97 26.73, 46.46 28.39 C40.94 30.05, 33.39 31.9, 26.8 31.51 C20.21 31.13, 11.12 28.64, 6.9 26.1 C2.68 23.55, 1.53 19.64, 1.47 16.27 C1.42 12.9, 3.06 8.57, 6.55 5.87 C10.04 3.17, 16.24 0.88, 22.43 0.07 C28.62 -0.74, 40.19 0.58, 43.68 0.98 C47.17 1.38, 43.63 2.06, 43.36 2.48" stroke="#000000" stroke-width="1" fill="none"></path></g><g stroke-linecap="round" transform="translate(123.97795749326986 46.536158499777116) rotate(243.11552904814388 33.36717876381209 10.006194284714027)"><path d="M29.02 0.99 C35.74 0.42, 45.2 0.67, 51.31 1.5 C57.42 2.34, 63.56 3.98, 65.67 6 C67.78 8.02, 66.71 11.61, 63.96 13.6 C61.21 15.6, 55.51 17.04, 49.17 17.99 C42.83 18.94, 32.85 19.68, 25.92 19.31 C18.98 18.95, 11.9 17.29, 7.58 15.78 C3.26 14.28, -0.04 12.24, -0.02 10.29 C0 8.34, 2.32 5.85, 7.69 4.08 C13.06 2.3, 27.74 0.16, 32.19 -0.36 C36.65 -0.88, 34.38 0.74, 34.41 0.95 M32.77 -0.68 C39.86 -0.96, 50.32 0.42, 56.11 2.01 C61.91 3.59, 66.62 6.62, 67.53 8.84 C68.44 11.06, 65.43 13.5, 61.57 15.34 C57.71 17.17, 51.07 19.1, 44.36 19.85 C37.66 20.6, 28.23 20.87, 21.36 19.84 C14.48 18.81, 6.51 15.74, 3.11 13.69 C-0.29 11.64, -0.5 9.3, 0.95 7.53 C2.4 5.76, 6.45 4.33, 11.82 3.08 C17.19 1.83, 29.67 0.65, 33.17 0.04 C36.66 -0.57, 32.58 -0.84, 32.8 -0.58" stroke="none" stroke-width="0" fill="#12b886"></path><path d="M25.96 0.39 C32.48 -0.19, 42.57 0.19, 48.78 1.1 C54.99 2.02, 60.32 3.89, 63.24 5.88 C66.15 7.87, 68.14 10.86, 66.26 13.05 C64.37 15.25, 57.91 17.84, 51.94 19.06 C45.97 20.28, 37.5 20.69, 30.44 20.37 C23.38 20.05, 14.56 18.87, 9.57 17.15 C4.59 15.42, 1.14 12.23, 0.54 10.02 C-0.06 7.8, 1.27 5.42, 5.97 3.87 C10.68 2.31, 23.98 1.19, 28.76 0.67 C33.54 0.16, 34.39 0.64, 34.64 0.79 M43.48 0.2 C50.08 0.72, 57.15 3.27, 60.82 5.26 C64.49 7.25, 66.54 10, 65.49 12.14 C64.44 14.28, 59.41 16.58, 54.53 18.09 C49.66 19.6, 43.08 20.95, 36.25 21.17 C29.42 21.4, 19.43 20.92, 13.56 19.45 C7.69 17.99, 2.83 14.92, 1.05 12.39 C-0.73 9.86, -0.24 6.21, 2.85 4.27 C5.95 2.34, 12.79 1.6, 19.61 0.77 C26.43 -0.06, 39.94 -0.56, 43.76 -0.71 C47.58 -0.85, 42.63 -0.38, 42.54 -0.11" stroke="#000000" stroke-width="1" fill="none"></path></g><g stroke-linecap="round" transform="translate(121.4457357158393 75.69668415510137) rotate(318.4160540829896 30.14877646278495 15.888778196644708)"><path d="M22.86 1 C28.85 -0.02, 37.63 0.31, 43.36 1.73 C49.1 3.16, 54.75 6.62, 57.27 9.56 C59.8 12.5, 60.1 16.17, 58.5 19.38 C56.9 22.59, 52.92 26.86, 47.69 28.82 C42.47 30.77, 33.64 31.3, 27.14 31.12 C20.64 30.94, 13.24 30.01, 8.67 27.73 C4.11 25.46, 0.23 21.08, -0.25 17.48 C-0.73 13.88, 1.12 9, 5.8 6.16 C10.48 3.33, 23.47 1.53, 27.83 0.47 C32.19 -0.6, 31.91 -0.47, 31.96 -0.21 M28.48 -1 C34.45 -1.16, 41.94 1.56, 47.02 3.92 C52.09 6.28, 57.14 10.1, 58.93 13.17 C60.72 16.23, 60.46 19.42, 57.78 22.29 C55.09 25.15, 48.71 28.91, 42.82 30.37 C36.93 31.82, 28.62 32.12, 22.44 31.02 C16.26 29.91, 9.67 26.45, 5.75 23.73 C1.84 21.01, -1.51 17.97, -1.06 14.7 C-0.61 11.43, 3.49 6.64, 8.44 4.09 C13.39 1.54, 25.41 0.19, 28.65 -0.6 C31.9 -1.39, 28.15 -1.13, 27.92 -0.65" stroke="none" stroke-width="0" fill="#12b886"></path><path d="M25.45 0.7 C31.55 0.02, 40.32 1.37, 45.87 2.94 C51.42 4.5, 56.71 6.83, 58.75 10.08 C60.8 13.34, 60.46 19.19, 58.16 22.49 C55.85 25.78, 50.44 28.24, 44.92 29.86 C39.4 31.47, 31.34 32.81, 25.03 32.2 C18.72 31.58, 11.21 28.87, 7.08 26.17 C2.94 23.48, 0.27 19.57, 0.23 16.03 C0.19 12.49, 1.74 7.76, 6.82 4.93 C11.9 2.11, 25.73 -0.32, 30.73 -0.92 C35.73 -1.53, 36.71 0.86, 36.83 1.32 M37.95 0.65 C43.8 1.24, 50.5 3.38, 54.33 5.95 C58.15 8.52, 61.16 12.81, 60.88 16.07 C60.6 19.33, 57.13 22.68, 52.65 25.51 C48.16 28.33, 40.33 32.36, 33.96 33.02 C27.58 33.69, 19.62 31.56, 14.4 29.47 C9.18 27.38, 4.57 23.96, 2.64 20.47 C0.71 16.98, 0.62 11.82, 2.83 8.52 C5.03 5.22, 10.08 1.96, 15.86 0.69 C21.64 -0.57, 34.11 1.01, 37.51 0.93 C40.9 0.85, 36.45 -0.11, 36.2 0.22" stroke="#000000" stroke-width="1" fill="none"></path></g><g stroke-linecap="round" transform="translate(37.74342273425384 65.54215078804927) rotate(0 60.53451416950992 95.25283943145197)"><path d="M48.16 2.46 C55.62 -1.37, 65.42 -0.91, 73.56 1.66 C81.7 4.23, 90.39 10.18, 96.98 17.91 C103.58 25.64, 109.12 36.8, 113.12 48.05 C117.11 59.3, 120.02 72.55, 120.95 85.43 C121.88 98.31, 121.44 113.12, 118.71 125.33 C115.97 137.55, 110.18 149.28, 104.55 158.71 C98.91 168.13, 92.23 176.64, 84.88 181.88 C77.53 187.12, 68.57 190.29, 60.44 190.15 C52.31 190.01, 43.75 186.21, 36.11 181.02 C28.48 175.83, 20.27 168.52, 14.62 159.02 C8.98 149.52, 4.58 136.34, 2.25 124.01 C-0.07 111.67, -0.46 97.72, 0.66 85.02 C1.78 72.32, 4.72 58.94, 8.95 47.8 C13.19 36.67, 19.05 25.99, 26.05 18.22 C33.05 10.44, 46.65 3.64, 50.97 1.17 C55.28 -1.3, 51.92 1.67, 51.96 3.4 M55.38 1.53 C63.24 -1.16, 72.82 0.04, 80.57 4.18 C88.33 8.32, 95.81 17.2, 101.9 26.37 C107.98 35.54, 113.85 47.31, 117.1 59.21 C120.34 71.1, 121.78 84.85, 121.39 97.75 C121 110.66, 118.34 124.78, 114.75 136.62 C111.17 148.46, 106.19 160.32, 99.86 168.79 C93.54 177.26, 84.71 183.82, 76.8 187.44 C68.88 191.06, 60.45 192.43, 52.38 190.52 C44.32 188.61, 35.36 182.98, 28.42 175.98 C21.48 168.98, 15.41 159.38, 10.73 148.51 C6.04 137.64, 1.66 123.48, 0.31 110.79 C-1.03 98.09, 0.5 84.61, 2.66 72.32 C4.82 60.03, 8.63 47.13, 13.29 37.02 C17.95 26.91, 23.31 17.91, 30.62 11.65 C37.93 5.39, 53.09 0.97, 57.16 -0.56 C61.22 -2.08, 55.23 0.63, 55.03 2.51" stroke="none" stroke-width="0" fill="#12b886"></path><path d="M33.32 9.38 C39.94 2.61, 49.4 1.3, 57.57 0.96 C65.74 0.61, 74.73 2.74, 82.36 7.32 C89.99 11.9, 97.64 19.34, 103.33 28.46 C109.02 37.58, 113.51 50.01, 116.53 62.02 C119.55 74.02, 121.89 87.69, 121.46 100.49 C121.03 113.28, 117.75 127.21, 113.94 138.8 C110.14 150.39, 105.09 161.98, 98.65 170.04 C92.22 178.09, 83.31 184.08, 75.34 187.14 C67.37 190.21, 58.93 190.51, 50.83 188.41 C42.73 186.31, 33.68 181.39, 26.74 174.54 C19.8 167.69, 13.56 158.12, 9.19 147.29 C4.83 136.47, 1.86 122.6, 0.54 109.59 C-0.77 96.57, -0.99 81.76, 1.31 69.23 C3.6 56.69, 7.68 44.94, 14.3 34.36 C20.92 23.78, 35.23 10.95, 41.02 5.75 C46.81 0.54, 48.78 1.65, 49.04 3.13 M50.93 0.35 C58.58 -3.36, 68.92 -0.68, 76.97 2.57 C85.02 5.83, 92.87 11.66, 99.25 19.88 C105.63 28.1, 111.46 40.08, 115.27 51.89 C119.07 63.7, 121.68 77.95, 122.1 90.73 C122.51 103.51, 121.06 116.62, 117.75 128.59 C114.43 140.56, 107.8 153.24, 102.2 162.53 C96.59 171.82, 91.6 179.56, 84.12 184.31 C76.64 189.07, 65.68 191.68, 57.33 191.05 C48.97 190.42, 41.09 186.52, 33.99 180.51 C26.89 174.5, 20.27 164.79, 14.73 154.97 C9.19 145.16, 3.19 134.04, 0.75 121.6 C-1.69 109.16, -1.48 93.18, 0.07 80.33 C1.62 67.48, 5.53 55.17, 10.04 44.51 C14.55 33.84, 20.29 23.52, 27.12 16.34 C33.95 9.17, 46.86 3.71, 51.02 1.46 C55.18 -0.79, 52.1 1.37, 52.08 2.85" stroke="#000000" stroke-width="1" fill="none"></path></g><g stroke-linecap="round" transform="translate(61.957247962410406 84.77075129524519) rotate(0 10.326464152821643 15.667752485563597)"><path d="M9.85 -0.37 C12.01 -0.9, 14.8 0.8, 16.63 2.74 C18.47 4.68, 20.37 8.01, 20.86 11.26 C21.35 14.52, 20.61 19.26, 19.57 22.27 C18.52 25.29, 16.7 27.82, 14.58 29.35 C12.46 30.88, 8.98 32.15, 6.84 31.47 C4.71 30.78, 2.88 28.19, 1.76 25.22 C0.63 22.25, -0.14 16.94, 0.09 13.65 C0.33 10.35, 1.5 7.85, 3.15 5.45 C4.79 3.06, 8.51 0.15, 9.98 -0.75 C11.44 -1.64, 11.75 -0.32, 11.95 0.08 M15.97 0.46 C17.45 1.77, 17.86 6.43, 18.44 9.61 C19.02 12.8, 20.02 16.61, 19.46 19.56 C18.89 22.51, 17.05 25.24, 15.08 27.3 C13.1 29.37, 9.7 32.29, 7.62 31.95 C5.54 31.6, 4.02 27.77, 2.58 25.23 C1.14 22.7, -0.73 19.86, -1.04 16.72 C-1.34 13.59, -0.78 9, 0.75 6.4 C2.29 3.81, 5.64 2.02, 8.16 1.16 C10.68 0.29, 14.51 1.25, 15.88 1.21 C17.25 1.17, 16.5 0.4, 16.37 0.93" stroke="none" stroke-width="0" fill="#fab005"></path><path d="M7.3 -0.04 C9.35 -0.9, 13.04 -0.73, 15.09 0.98 C17.15 2.7, 18.78 7.11, 19.62 10.26 C20.46 13.4, 20.67 16.86, 20.12 19.84 C19.58 22.83, 18.2 26.32, 16.32 28.17 C14.44 30.02, 11.11 31.38, 8.86 30.95 C6.62 30.52, 4.2 28.03, 2.85 25.58 C1.5 23.12, 0.99 19.6, 0.76 16.21 C0.54 12.82, -0.01 8.05, 1.51 5.24 C3.02 2.42, 8.17 0.2, 9.86 -0.67 C11.55 -1.54, 11.55 -0.2, 11.64 0.02 M7.35 1.11 C9.29 0.27, 12.82 0.71, 15.06 2.12 C17.29 3.53, 19.76 6.49, 20.77 9.56 C21.78 12.64, 21.88 17.42, 21.11 20.55 C20.34 23.69, 17.92 26.56, 16.16 28.37 C14.39 30.18, 12.49 31.67, 10.53 31.43 C8.57 31.19, 6.35 29.14, 4.38 26.94 C2.42 24.74, -0.69 21.3, -1.26 18.21 C-1.83 15.13, -0.39 11.6, 0.96 8.45 C2.32 5.29, 5.87 0.53, 6.85 -0.73 C7.82 -1.98, 6.62 0.42, 6.83 0.91" stroke="#000000" stroke-width="1" fill="none"></path></g><g stroke-linecap="round" transform="translate(116.9724012425537 82.9903272844291) rotate(0 10.326464152821643 15.667752485563597)"><path d="M7.08 -0.12 C9.06 -1.14, 11.4 0.51, 13.54 1.83 C15.67 3.16, 18.62 5.1, 19.88 7.8 C21.14 10.5, 21.58 14.62, 21.1 18.03 C20.61 21.44, 18.69 26.16, 16.98 28.27 C15.28 30.37, 13.16 30.65, 10.87 30.66 C8.58 30.67, 4.94 30.32, 3.24 28.31 C1.55 26.3, 1.09 22.17, 0.72 18.62 C0.35 15.06, -0.13 9.93, 1.04 6.98 C2.2 4.02, 6.41 2.1, 7.72 0.88 C9.04 -0.33, 8.72 -0.54, 8.91 -0.29 M13.8 1.62 C15.47 2.89, 17.24 7.4, 18.35 10.22 C19.46 13.03, 20.55 15.3, 20.45 18.51 C20.35 21.72, 19.36 27.49, 17.75 29.49 C16.14 31.5, 13.26 31.12, 10.8 30.53 C8.34 29.94, 4.81 28.16, 3.01 25.94 C1.21 23.73, 0 20.6, 0.01 17.25 C0.03 13.9, 2.03 8.63, 3.1 5.84 C4.16 3.05, 4.22 1.35, 6.4 0.52 C8.57 -0.3, 14.77 0.76, 16.14 0.9 C17.52 1.05, 14.83 1.09, 14.67 1.39" stroke="none" stroke-width="0" fill="#fab005"></path><path d="M9.85 -0.37 C12.01 -0.9, 14.8 0.8, 16.63 2.74 C18.47 4.68, 20.37 8.01, 20.86 11.26 C21.35 14.52, 20.61 19.26, 19.57 22.27 C18.52 25.29, 16.7 27.82, 14.58 29.35 C12.46 30.88, 8.98 32.15, 6.84 31.47 C4.71 30.78, 2.88 28.19, 1.76 25.22 C0.63 22.25, -0.14 16.94, 0.09 13.65 C0.33 10.35, 1.5 7.85, 3.15 5.45 C4.79 3.06, 8.51 0.15, 9.98 -0.75 C11.44 -1.64, 11.75 -0.32, 11.95 0.08 M15.97 0.46 C17.45 1.77, 17.86 6.43, 18.44 9.61 C19.02 12.8, 20.02 16.61, 19.46 19.56 C18.89 22.51, 17.05 25.24, 15.08 27.3 C13.1 29.37, 9.7 32.29, 7.62 31.95 C5.54 31.6, 4.02 27.77, 2.58 25.23 C1.14 22.7, -0.73 19.86, -1.04 16.72 C-1.34 13.59, -0.78 9, 0.75 6.4 C2.29 3.81, 5.64 2.02, 8.16 1.16 C10.68 0.29, 14.51 1.25, 15.88 1.21 C17.25 1.17, 16.5 0.4, 16.37 0.93" stroke="#000000" stroke-width="1" fill="none"></path></g><g stroke-linecap="round" transform="translate(68.01068796915581 88.33159931687743) rotate(0 4.273024146076125 7.121712343558102)"><path d="M1.87 -0.09 C2.88 -0.59, 5.58 0.25, 6.55 0.97 C7.53 1.69, 7.5 2.97, 7.71 4.24 C7.92 5.51, 7.89 7.06, 7.84 8.58 C7.79 10.1, 8.12 12.45, 7.41 13.35 C6.7 14.24, 4.41 13.98, 3.57 13.94 C2.72 13.91, 2.83 14.15, 2.33 13.14 C1.83 12.12, 0.96 9.5, 0.57 7.86 C0.18 6.22, -0.52 4.57, -0.02 3.3 C0.48 2.02, 3.14 0.6, 3.59 0.21 C4.05 -0.19, 2.69 0.67, 2.71 0.94 M5.07 -1.25 C6.05 -0.95, 8.29 0.95, 8.67 2.57 C9.05 4.19, 7.36 6.73, 7.34 8.46 C7.33 10.18, 9.1 12, 8.61 12.94 C8.11 13.88, 5.57 14.02, 4.37 14.08 C3.17 14.15, 2.05 13.86, 1.41 13.34 C0.76 12.82, 0.83 12.57, 0.49 10.94 C0.15 9.32, -0.89 5, -0.63 3.59 C-0.37 2.19, 1.21 3.07, 2.04 2.5 C2.87 1.93, 3.94 0.38, 4.36 0.16 C4.78 -0.07, 4.5 1.08, 4.55 1.16" stroke="none" stroke-width="0" fill="#000"></path><path d="M3.78 0.49 C4.63 0.39, 6.25 1.35, 7 2.21 C7.75 3.07, 8.11 4.27, 8.31 5.64 C8.5 7, 8.65 9.19, 8.15 10.39 C7.66 11.59, 6.13 12.31, 5.34 12.85 C4.56 13.4, 4.19 14, 3.47 13.66 C2.75 13.32, 1.71 12.06, 1 10.82 C0.29 9.57, -0.99 7.78, -0.79 6.17 C-0.59 4.57, 1.43 2.16, 2.22 1.17 C3.01 0.19, 3.51 0.3, 3.93 0.26 C4.35 0.23, 4.6 0.7, 4.74 0.94 M4.88 -0.69 C5.74 -0.43, 7.78 1.96, 8.25 3.43 C8.73 4.91, 8.23 6.81, 7.72 8.16 C7.21 9.51, 5.72 10.56, 5.19 11.54 C4.67 12.51, 5.43 14.09, 4.58 14 C3.73 13.92, 0.81 12.32, 0.08 11.05 C-0.64 9.77, 0.09 7.66, 0.23 6.35 C0.37 5.03, 0.33 4.01, 0.95 3.14 C1.57 2.26, 3.18 1.26, 3.97 1.1 C4.75 0.94, 5.46 2.12, 5.63 2.16 C5.81 2.21, 4.77 1.75, 5.04 1.4" stroke="#000000" stroke-width="1" fill="none"></path></g><g stroke-linecap="round" transform="translate(123.20390565577702 87.9755194048023) rotate(0 4.273024146076125 7.121712343558102)"><path d="M5.53 -0.27 C6.41 0.31, 7.87 2.14, 8.46 3.63 C9.05 5.13, 9.37 7.23, 9.08 8.71 C8.8 10.18, 7.7 11.57, 6.74 12.48 C5.79 13.38, 4.23 14.21, 3.37 14.13 C2.52 14.04, 2.07 12.93, 1.61 11.97 C1.16 11.01, 0.91 9.7, 0.63 8.35 C0.36 7, -0.53 5.09, -0.01 3.85 C0.5 2.61, 2.83 1.28, 3.71 0.9 C4.6 0.52, 4.73 1.46, 5.31 1.59 C5.89 1.72, 6.96 1.75, 7.21 1.68 M5.21 0.43 C6.08 0.36, 4.58 1.07, 5.3 1.67 C6.01 2.26, 9.22 2.64, 9.49 4 C9.75 5.36, 7.39 8.03, 6.91 9.82 C6.43 11.62, 7.37 13.84, 6.59 14.77 C5.82 15.7, 3.4 16.09, 2.27 15.43 C1.14 14.76, 0.28 12.35, -0.2 10.78 C-0.68 9.21, -0.96 7.21, -0.63 6 C-0.3 4.79, 1.16 4.58, 1.8 3.53 C2.44 2.49, 3.14 0.05, 3.21 -0.28 C3.29 -0.61, 1.93 1.47, 2.25 1.56" stroke="none" stroke-width="0" fill="#000"></path><path d="M3.83 0.4 C4.5 0.21, 4.34 0.84, 5.16 1.58 C5.98 2.31, 8.29 3.63, 8.75 4.82 C9.22 6.02, 8.35 7.41, 7.94 8.74 C7.53 10.07, 6.92 11.75, 6.29 12.81 C5.66 13.86, 5.08 15.28, 4.17 15.05 C3.25 14.83, 1.47 12.5, 0.78 11.48 C0.09 10.46, 0.1 10.3, 0.02 8.94 C-0.05 7.57, -0.28 4.65, 0.33 3.27 C0.93 1.89, 2.92 1.19, 3.63 0.66 C4.34 0.13, 4.54 -0.03, 4.57 0.1 M6.99 0.04 C7.97 0.35, 8.55 2.25, 8.6 3.88 C8.64 5.51, 7.49 8.34, 7.25 9.81 C7.01 11.27, 7.89 12.14, 7.13 12.65 C6.38 13.17, 3.87 12.97, 2.73 12.9 C1.59 12.84, 0.74 12.97, 0.32 12.25 C-0.1 11.52, 0.27 10.24, 0.23 8.56 C0.18 6.88, -0.61 3.34, 0.06 2.18 C0.73 1.03, 3.09 2.12, 4.26 1.62 C5.43 1.12, 6.66 -0.69, 7.06 -0.83 C7.46 -0.97, 6.85 0.32, 6.66 0.78" stroke="#000000" stroke-width="1" fill="none"></path></g><g stroke-linecap="round" transform="translate(40.94819084381095 126.43275301978119) rotate(0 46.82523380094676 12.997112394266054)"><path d="M61.3 0.08 C69.83 0.78, 78.74 3.49, 84.29 5.74 C89.84 7.99, 94.45 10.98, 94.61 13.56 C94.77 16.15, 90.69 19.25, 85.24 21.25 C79.79 23.25, 70.73 24.77, 61.92 25.57 C53.1 26.37, 41.12 26.94, 32.34 26.05 C23.57 25.16, 14.54 22.53, 9.27 20.23 C3.99 17.94, 0.76 14.85, 0.7 12.29 C0.64 9.72, 3.79 6.81, 8.9 4.86 C14.01 2.91, 22 1.08, 31.39 0.59 C40.77 0.1, 59 1.78, 65.19 1.94 C71.38 2.09, 68.89 1.3, 68.54 1.51 M58.39 1.67 C67.03 2.52, 77.36 4.13, 83.05 6.1 C88.73 8.07, 92.22 11.15, 92.5 13.48 C92.77 15.81, 89.63 18.02, 84.7 20.06 C79.77 22.1, 71.11 24.61, 62.9 25.73 C54.68 26.85, 44.19 27.68, 35.39 26.77 C26.6 25.86, 15.97 22.43, 10.12 20.29 C4.26 18.15, 0.85 16.5, 0.26 13.93 C-0.34 11.36, 1.82 7.13, 6.54 4.88 C11.26 2.62, 20.04 1.32, 28.58 0.43 C37.12 -0.47, 52.55 -0.5, 57.77 -0.48 C62.99 -0.45, 59.86 0, 59.88 0.56" stroke="none" stroke-width="0" fill="#228be6"></path><path d="M29.05 0.13 C37.11 -1.05, 49.4 -0.03, 58.43 0.61 C67.45 1.24, 77.22 2.14, 83.2 3.95 C89.18 5.76, 93.73 8.88, 94.32 11.47 C94.92 14.06, 91.89 17.25, 86.77 19.51 C81.64 21.78, 72.15 24.07, 63.56 25.06 C54.97 26.05, 43.98 26.02, 35.2 25.47 C26.42 24.92, 16.63 23.79, 10.88 21.76 C5.13 19.73, 1.42 15.96, 0.68 13.28 C-0.05 10.6, 0.76 7.92, 6.47 5.65 C12.17 3.39, 29.04 0.7, 34.93 -0.33 C40.82 -1.35, 41.59 -0.9, 41.82 -0.49 M25.83 2.56 C33.6 1.75, 46.74 1.09, 56.08 1.46 C65.42 1.84, 75.79 3.13, 81.87 4.8 C87.94 6.48, 91.42 9.28, 92.52 11.52 C93.62 13.77, 92.9 16.17, 88.46 18.28 C84.02 20.39, 74.32 22.8, 65.88 24.19 C57.45 25.58, 46.49 26.88, 37.87 26.61 C29.24 26.35, 20.32 24.42, 14.14 22.62 C7.95 20.82, 2.08 18.34, 0.76 15.82 C-0.56 13.29, 2.11 9.76, 6.24 7.46 C10.37 5.16, 22.35 2.92, 25.54 2.02 C28.74 1.12, 24.93 1.91, 25.42 2.05" stroke="#000000" stroke-width="1" fill="none"></path></g><g stroke-linecap="round" transform="translate(70.5032962545622 158.12435420327714) rotate(0 43.442417585205305 8.368008336114713)"><path d="M63.81 1.23 C71.57 1.77, 79.43 3.49, 83.01 5.05 C86.59 6.6, 87.94 8.86, 85.29 10.55 C82.63 12.24, 74.98 14.04, 67.08 15.17 C59.19 16.3, 47.28 17.54, 37.91 17.32 C28.54 17.11, 17.04 15.29, 10.86 13.86 C4.68 12.44, 1.08 10.58, 0.81 8.75 C0.54 6.92, 3.64 4.44, 9.25 2.89 C14.86 1.33, 24.59 -0.35, 34.46 -0.58 C44.33 -0.82, 62.29 0.98, 68.46 1.46 C74.63 1.94, 71.97 2.3, 71.46 2.31 M64.54 0 C72.97 0.71, 82.03 4.54, 85.2 6.54 C88.37 8.55, 86.97 10.67, 83.58 12.04 C80.19 13.42, 72.55 14.04, 64.86 14.78 C57.17 15.52, 46.66 16.42, 37.44 16.49 C28.21 16.56, 15.52 16.4, 9.52 15.2 C3.52 14, 1.26 11.19, 1.43 9.3 C1.59 7.4, 5.17 5.19, 10.49 3.82 C15.81 2.46, 24.66 1.67, 33.35 1.11 C42.03 0.55, 57.52 0.61, 62.61 0.46 C67.7 0.31, 64.15 0.09, 63.9 0.19" stroke="none" stroke-width="0" fill="#228be6"></path><path d="M41.28 0.03 C50.13 -0.22, 62.82 1.03, 70.35 2.12 C77.88 3.22, 84.5 4.77, 86.46 6.59 C88.41 8.41, 86.61 11.33, 82.09 13.04 C77.56 14.74, 68.08 16.2, 59.3 16.83 C50.53 17.46, 38.18 17.53, 29.45 16.81 C20.73 16.1, 11.64 14.21, 6.95 12.56 C2.25 10.9, 0.03 8.72, 1.3 6.88 C2.56 5.03, 6.46 2.59, 14.54 1.49 C22.63 0.39, 42.91 0.34, 49.8 0.29 C56.7 0.24, 56.16 1.07, 55.89 1.18 M28.44 0.15 C36.29 -0.85, 47.12 -0.91, 55.66 -0.44 C64.2 0.03, 74.47 1.12, 79.69 2.96 C84.91 4.79, 88.28 8.41, 86.96 10.57 C85.65 12.73, 78.9 14.86, 71.8 15.91 C64.71 16.96, 53.63 17.08, 44.39 16.87 C35.14 16.65, 23.51 15.94, 16.33 14.62 C9.16 13.3, 2.95 10.61, 1.32 8.98 C-0.31 7.34, 2.28 6.33, 6.56 4.81 C10.84 3.28, 23.67 0.71, 27.02 -0.17 C30.37 -1.04, 26.09 -0.64, 26.64 -0.44" stroke="#000000" stroke-width="1" fill="none"></path></g><g stroke-linecap="round" transform="translate(42.372543092698606 180.91381088225202) rotate(0 37.0328813660912 6.765616131189404)"><path d="M45.44 -0.1 C52.89 0.17, 62.67 2.38, 67.51 3.61 C72.36 4.84, 74.98 5.85, 74.52 7.28 C74.06 8.72, 70.22 11.14, 64.74 12.23 C59.25 13.32, 49.73 13.69, 41.6 13.82 C33.47 13.94, 22.63 13.75, 15.96 12.99 C9.3 12.22, 3.89 10.57, 1.6 9.24 C-0.68 7.9, -0.92 6.31, 2.26 4.99 C5.45 3.67, 12.32 2.16, 20.73 1.33 C29.14 0.49, 46.3 -0.07, 52.72 0 C59.14 0.08, 59.5 1.49, 59.25 1.77 M36.75 -1.28 C44.56 -1.53, 55.63 -0.65, 62.03 0.32 C68.43 1.3, 73.99 2.98, 75.16 4.59 C76.33 6.21, 73.32 8.5, 69.07 10.01 C64.82 11.51, 57.25 13.17, 49.66 13.61 C42.06 14.04, 31.22 13.43, 23.51 12.62 C15.8 11.82, 7.22 9.89, 3.39 8.77 C-0.44 7.64, -1.47 7.19, 0.52 5.86 C2.51 4.53, 9.16 1.57, 15.31 0.8 C21.45 0.03, 33.63 1.41, 37.38 1.24 C41.13 1.08, 37.48 -0.19, 37.8 -0.21" stroke="none" stroke-width="0" fill="#228be6"></path><path d="M36.99 -0.58 C44.42 -0.44, 54.1 1.39, 60.08 2.56 C66.06 3.73, 71.31 5.3, 72.88 6.45 C74.44 7.6, 73.16 8.21, 69.47 9.47 C65.77 10.72, 58.33 13.24, 50.7 13.96 C43.08 14.69, 31.48 14.54, 23.71 13.83 C15.94 13.11, 7.9 11.08, 4.07 9.69 C0.24 8.3, -0.61 6.71, 0.74 5.5 C2.09 4.29, 5.64 3.28, 12.18 2.44 C18.73 1.6, 35.06 0.77, 40.01 0.47 C44.95 0.16, 42.19 0.47, 41.85 0.61 M18.9 -0.12 C25.33 -1.07, 36.28 -1.5, 44.28 -0.99 C52.28 -0.48, 61.7 1.76, 66.9 2.92 C72.09 4.08, 75.87 4.46, 75.46 5.99 C75.05 7.51, 69.92 11.04, 64.42 12.06 C58.93 13.08, 50.5 11.99, 42.5 12.11 C34.49 12.23, 23.18 13.54, 16.39 12.78 C9.6 12.02, 3.89 8.99, 1.75 7.55 C-0.39 6.11, 0.58 5.34, 3.55 4.16 C6.53 2.98, 16.9 1.18, 19.61 0.46 C22.32 -0.27, 19.62 -0.12, 19.82 -0.19" stroke="#000000" stroke-width="1" fill="none"></path></g><g stroke-linecap="round" transform="translate(82.96627248042205 199.0741635030756) rotate(0 32.759840919721455 7.477792255633261)"><path d="M29.56 -0.48 C36.26 -0.88, 46.68 0, 52.45 1.15 C58.23 2.29, 62.49 4.88, 64.19 6.39 C65.9 7.91, 65.48 9.03, 62.7 10.23 C59.91 11.42, 53.99 12.78, 47.49 13.56 C40.99 14.35, 30.77 15.22, 23.69 14.93 C16.61 14.64, 9.08 13.08, 4.99 11.82 C0.91 10.56, -1.75 8.96, -0.81 7.36 C0.13 5.75, 5.33 3.42, 10.62 2.2 C15.91 0.98, 27.16 0.4, 30.91 0.02 C34.67 -0.35, 32.94 -0.33, 33.15 -0.07 M40.68 -0.44 C47.25 -0.06, 54.89 3.18, 58.79 4.34 C62.68 5.51, 64.55 5.34, 64.05 6.55 C63.55 7.76, 60.29 10.33, 55.77 11.61 C51.24 12.89, 43.54 14.16, 36.9 14.26 C30.26 14.36, 22.03 12.87, 15.92 12.22 C9.81 11.57, 2.17 11.89, 0.23 10.37 C-1.71 8.85, 1.4 4.65, 4.27 3.1 C7.13 1.55, 11.26 1.46, 17.44 1.08 C23.62 0.69, 37.71 1.02, 41.35 0.78 C44.99 0.54, 39.49 -0.24, 39.27 -0.36" stroke="none" stroke-width="0" fill="#228be6"></path><path d="M32.82 -0.16 C39.59 -0.38, 48.42 0.53, 53.67 1.51 C58.92 2.49, 63.23 4.03, 64.31 5.72 C65.4 7.42, 63.53 10.14, 60.18 11.68 C56.83 13.22, 50.51 14.39, 44.21 14.96 C37.91 15.53, 29.02 15.77, 22.4 15.1 C15.78 14.43, 7.97 12.26, 4.48 10.93 C0.99 9.59, 0.16 8.59, 1.45 7.09 C2.75 5.59, 6.25 2.94, 12.27 1.91 C18.28 0.88, 32.78 1.11, 37.54 0.92 C42.31 0.72, 41.17 0.65, 40.85 0.73 M33.52 0.84 C40.2 0.95, 49.21 1, 54.29 2.04 C59.37 3.09, 62.74 5.51, 64.01 7.1 C65.28 8.69, 65.05 10.34, 61.9 11.58 C58.76 12.82, 51.98 14.09, 45.13 14.55 C38.28 15.02, 27.8 15.12, 20.82 14.37 C13.84 13.61, 6.6 11.61, 3.25 10.03 C-0.09 8.46, -0.83 6.47, 0.76 4.91 C2.35 3.34, 7.45 1.5, 12.78 0.63 C18.12 -0.24, 29.36 -0.31, 32.77 -0.32 C36.18 -0.33, 33.31 0.46, 33.26 0.57" stroke="#000000" stroke-width="1" fill="none"></path></g><g stroke-linecap="round" transform="translate(61.957247962410065 219.01491568427505) rotate(0 24.56988883993779 5.3412720324484155)"><path d="M15.59 0.07 C20.09 -0.22, 27.71 0.05, 32.55 0.35 C37.39 0.64, 41.87 1, 44.61 1.85 C47.36 2.69, 49.59 4.29, 49.04 5.42 C48.49 6.56, 45.43 7.69, 41.32 8.66 C37.21 9.64, 29.72 10.99, 24.39 11.25 C19.06 11.51, 13.33 10.95, 9.32 10.21 C5.32 9.46, 1.27 8.03, 0.35 6.79 C-0.57 5.54, 1.08 3.86, 3.79 2.75 C6.5 1.65, 13.8 0.64, 16.6 0.14 C19.4 -0.37, 20.43 -0.26, 20.59 -0.29 M34.17 -0.59 C39.01 -0.69, 42.46 0.38, 45.02 1.32 C47.59 2.26, 50.49 3.62, 49.57 5.05 C48.65 6.49, 43.63 9.25, 39.51 9.94 C35.39 10.64, 29.94 9.32, 24.85 9.22 C19.75 9.13, 12.94 9.73, 8.95 9.37 C4.96 9, 1.75 8.36, 0.92 7.04 C0.09 5.72, 1.22 2.56, 3.98 1.46 C6.73 0.35, 12.74 0.8, 17.44 0.39 C22.14 -0.03, 29.56 -1.24, 32.16 -1.01 C34.76 -0.78, 33.16 1.29, 33.02 1.77" stroke="none" stroke-width="0" fill="#228be6"></path><path d="M27.01 -0.41 C31.9 -0.39, 38.43 1.05, 42 1.91 C45.58 2.77, 48.21 3.61, 48.44 4.77 C48.67 5.93, 46.35 7.92, 43.4 8.86 C40.46 9.81, 35.9 10.15, 30.77 10.44 C25.64 10.74, 17.31 10.97, 12.6 10.62 C7.88 10.28, 4.52 9.64, 2.47 8.38 C0.42 7.12, -0.99 4.4, 0.3 3.04 C1.59 1.69, 4.93 0.76, 10.22 0.26 C15.5 -0.25, 27.63 -0.03, 32.01 0 C36.4 0.03, 36.42 0.33, 36.54 0.44 M33.46 -0.18 C38.59 0.59, 44.63 3.02, 47.21 3.93 C49.78 4.84, 50.3 4.59, 48.9 5.28 C47.5 5.97, 42.98 7.28, 38.81 8.09 C34.65 8.9, 29.08 9.8, 23.91 10.12 C18.73 10.44, 11.75 10.83, 7.77 10.02 C3.78 9.2, 0.53 6.67, 0 5.23 C-0.53 3.8, 1.93 2.22, 4.6 1.39 C7.28 0.57, 11.35 0.56, 16.05 0.27 C20.74 -0.02, 29.95 -0.34, 32.75 -0.36 C35.56 -0.38, 32.81 0.11, 32.87 0.16" stroke="#000000" stroke-width="1" fill="none"></path></g><g stroke-linecap="round" transform="translate(96.14144113101918 231.47794081101543) rotate(0 17.092096584304556 3.5608480216322675)"><path d="M12.84 0.1 C15.98 -0.04, 20.76 -0.51, 24.19 -0.06 C27.61 0.39, 31.75 2.02, 33.38 2.79 C35 3.57, 34.85 3.84, 33.93 4.58 C33.02 5.33, 30.79 6.73, 27.89 7.26 C25 7.79, 20.27 7.83, 16.56 7.78 C12.86 7.73, 8.52 7.58, 5.65 6.96 C2.78 6.34, -0.14 5.06, -0.66 4.08 C-1.18 3.1, -0.01 1.69, 2.54 1.08 C5.09 0.48, 12.02 0.74, 14.63 0.43 C17.25 0.13, 18.26 -0.7, 18.23 -0.75 M18.88 0.37 C22.26 0.37, 26.65 0.13, 29.14 0.48 C31.63 0.84, 33.63 1.66, 33.81 2.49 C33.99 3.33, 32.6 4.73, 30.2 5.49 C27.8 6.25, 22.91 6.7, 19.43 7.03 C15.94 7.36, 12.4 7.79, 9.28 7.47 C6.16 7.14, 2.09 5.85, 0.68 5.08 C-0.73 4.31, -0.25 3.71, 0.82 2.83 C1.89 1.95, 3.95 0.19, 7.11 -0.18 C10.26 -0.54, 17.82 0.66, 19.75 0.61 C21.67 0.57, 18.87 -0.66, 18.66 -0.46" stroke="none" stroke-width="0" fill="#228be6"></path><path d="M23.25 0.54 C26.57 0.8, 30.33 1.3, 32.05 1.79 C33.76 2.29, 33.99 2.68, 33.54 3.53 C33.09 4.38, 31.91 6.27, 29.34 6.88 C26.76 7.48, 21.83 7.17, 18.11 7.16 C14.38 7.16, 10.05 7.35, 6.98 6.85 C3.91 6.35, 0.4 5.08, -0.3 4.17 C-1 3.26, 0.95 1.95, 2.79 1.39 C4.62 0.83, 6.72 0.86, 10.71 0.8 C14.71 0.74, 23.65 1.05, 26.78 1.03 C29.91 1.01, 29.7 0.55, 29.52 0.69 M19.68 -0.3 C23.35 -0.23, 29.17 0.34, 31.76 1.16 C34.34 1.99, 35.33 4.09, 35.21 4.66 C35.1 5.22, 33.47 4.31, 31.06 4.55 C28.66 4.8, 24.46 5.9, 20.77 6.11 C17.08 6.31, 12.11 6.08, 8.92 5.79 C5.73 5.49, 2.84 5.05, 1.65 4.36 C0.45 3.67, 0.72 2.38, 1.75 1.64 C2.78 0.9, 4.62 -0.02, 7.82 -0.09 C11.01 -0.16, 18.55 1.1, 20.93 1.22 C23.3 1.35, 22.16 0.54, 22.06 0.64" stroke="#000000" stroke-width="1" fill="none"></path></g><g stroke-linecap="round" transform="translate(72.63980832760035 241.09224513968675) rotate(0 15.31166442334171 2.1365120730380625)"><path d="M10.31 -0.2 C13.17 -0.42, 17.34 -0.01, 20.4 0.08 C23.46 0.17, 27.08 -0.07, 28.68 0.35 C30.27 0.77, 30.46 2.11, 29.97 2.57 C29.49 3.04, 28.23 2.98, 25.77 3.17 C23.31 3.36, 18.42 3.62, 15.23 3.71 C12.05 3.8, 9.21 3.81, 6.65 3.71 C4.09 3.61, 0.53 3.62, -0.14 3.1 C-0.81 2.59, 0.66 1.16, 2.63 0.62 C4.6 0.09, 10.06 0.02, 11.68 -0.11 C13.3 -0.25, 12.28 -0.14, 12.35 -0.18 M18.86 -0.02 C21.67 -0.05, 26.25 -0.3, 28.42 0.28 C30.59 0.87, 32.58 2.82, 31.87 3.51 C31.15 4.2, 26.77 4.44, 24.13 4.42 C21.48 4.4, 18.9 3.37, 15.99 3.36 C13.09 3.36, 9.29 4.74, 6.69 4.38 C4.09 4.01, 1.22 1.58, 0.39 1.16 C-0.43 0.73, 0.27 2.1, 1.74 1.81 C3.21 1.51, 6.31 -0.22, 9.23 -0.6 C12.15 -0.98, 17.45 -0.41, 19.25 -0.47 C21.06 -0.53, 20.02 -1.22, 20.08 -0.96" stroke="none" stroke-width="0" fill="#228be6"></path><path d="M21.16 0.73 C24.15 0.85, 27.51 1.37, 28.94 1.56 C30.37 1.75, 30.58 1.43, 29.73 1.85 C28.88 2.27, 26.32 3.5, 23.84 4.07 C21.36 4.64, 18 5.33, 14.84 5.26 C11.68 5.2, 7.19 4.33, 4.89 3.68 C2.58 3.03, 1.22 1.9, 1.01 1.36 C0.8 0.81, 1.77 0.77, 3.62 0.39 C5.47 0.02, 8.94 -0.86, 12.1 -0.89 C15.25 -0.92, 20.78 0.07, 22.55 0.21 C24.32 0.35, 22.73 -0.23, 22.71 -0.07 M18.92 1.38 C22.17 1.34, 25.72 1.71, 27.89 1.65 C30.06 1.58, 32 0.84, 31.93 1.01 C31.86 1.19, 29.89 2.24, 27.49 2.71 C25.09 3.18, 20.71 3.37, 17.54 3.83 C14.37 4.3, 11.42 5.83, 8.46 5.5 C5.5 5.17, 1.11 2.47, -0.22 1.86 C-1.55 1.26, -0.76 2.2, 0.48 1.88 C1.73 1.55, 4.49 0.18, 7.25 -0.07 C10.01 -0.32, 15.41 0.45, 17.03 0.36 C18.65 0.26, 16.94 -0.46, 16.96 -0.64" stroke="#000000" stroke-width="1" fill="none"></path></g></svg>