<svg viewBox="0 0 20 20" xmlns="http://www.w3.org/2000/svg" stroke="#000" stroke-width="0.5" fill="#a0a">
    <defs>
        <path id="leg" d="M0,0 c-1,3 2,3 1,0 z M1.5,0 c-1,3 2,3 1,0 z M3,0 c-1,3 2,3 1,0 z" />
        <path id="ear" fill="#f70" d="M0,0 a 0.75 0.75 1 1 1 0.5,-0.5 z" />
        <g id="happy-eye">
            <path fill="#f70" d="M0,0 C -2,-3 4,-3 2,0 z" />
            <ellipse fill="#000" cx="1.5" cy="-0.75" rx="0.5" y="0.5" />
        </g>
        <path id="smile" fill="none" d="M0,0 C0,2 8,2 8,0" />
    </defs>

    <g id="legs">
            <use href="#leg" transform="translate(5.25,15.1)" />
            <use href="#leg" transform="translate(14.75,15.1) scale(-1,1)" />
    </g>

    <g id="ears">
            <use href="#ear" transform="translate(4,4)" />
            <use href="#ear" transform="translate(16,4) scale(-1,1)" />
    </g>
    
    <path id="body" d="M5,15 C -5,-3 25,-3 15,15 z" />
    
    <g id="happy-face">
        <use href="#happy-eye" transform="translate(6,8)" />
        <use href="#happy-eye" transform="translate(14,8) scale(-1,1)" />
        <use href="#smile" transform="translate(6,10)" />
    </g>
</svg>