<svg version="1.1" xmlns="http://www.w3.org/2000/svg" viewBox="0 0 403.933837890625 526.3905639648438" width="403.933837890625" height="526.3905639648438">
  <!-- svg-source:excalidraw -->
  
  <defs>
    <style class="style-fonts">
      @font-face {
        font-family: "Virgil";
        src: url("https://excalidraw.com/Virgil.woff2");
      }
      @font-face {
        font-family: "Cascadia";
        src: url("https://excalidraw.com/Cascadia.woff2");
      }
    </style>
  </defs>
  <g stroke-linecap="round" transform="translate(10 10) rotate(0 191.9669189453125 46.28643035888672)"><path d="M21.33 0.32 L367.95 1.96 L373.25 1.69 L379.64 5.47 L383.21 11.36 L385.63 21.78 L383.63 75.91 L379.55 88.25 L370.1 91.21 L359.46 93.23 L16.63 91.61 L9.65 89.48 L5.91 86.22 L2.8 80.97 L1.71 68.52 L0.05 24.44 L0.05 14.77 L4.7 3.95 L12.79 2.71 L24.3 1.86" stroke="none" stroke-width="0" fill="#ced4da"></path><path d="M23.14 0 M23.14 0 C93.71 -0.58, 163.75 0.06, 360.79 0 M23.14 0 C97.5 1.26, 171.03 1.56, 360.79 0 M360.79 0 C376.82 -1.19, 385.33 8.59, 383.93 23.14 M360.79 0 C376.51 1.66, 381.73 5.93, 383.93 23.14 M383.93 23.14 C382.54 36.91, 384.35 52.56, 383.93 69.43 M383.93 23.14 C384.13 36.29, 383.24 49.51, 383.93 69.43 M383.93 69.43 C385.68 86.7, 377.04 92.91, 360.79 92.57 M383.93 69.43 C384.14 85.37, 374.1 94.65, 360.79 92.57 M360.79 92.57 C244.33 91.07, 129.91 89.7, 23.14 92.57 M360.79 92.57 C266.02 92.71, 169.98 92.28, 23.14 92.57 M23.14 92.57 C6.02 94.06, -0.41 83.25, 0 69.43 M23.14 92.57 C6.5 94.28, -1.69 85.65, 0 69.43 M0 69.43 C-0.84 49.9, -0.39 32.95, 0 23.14 M0 69.43 C0.7 57.84, 0.52 47.88, 0 23.14 M0 23.14 C-1.03 9.43, 9.23 0.24, 23.14 0 M0 23.14 C0.3 6.8, 9.62 1.56, 23.14 0" stroke="#000000" stroke-width="1" fill="none"></path></g><g stroke-linecap="round" transform="translate(41.05517578125 101.10227966308594) rotate(0 161.5892333984375 207.6441421508789)"><path d="M33.44 -1.91 L289.63 0.3 L303.88 0.64 L309.58 3.69 L319.39 12.77 L321.01 18.4 L324.22 32.21 L322.48 381.72 L319.93 399.04 L320.52 403.61 L311.02 410.97 L305.63 411.44 L292.98 416.13 L30.6 413.31 L16.59 414.39 L12.72 409.84 L4.13 403.14 L1.74 398.2 L1.31 381.32 L0.51 22.8 L3.48 17.59 L6.39 6.94 L19.49 0.53 L32.69 1.59" stroke="none" stroke-width="0" fill="#7950f2"></path><path d="M32 0 M32 0 C109.69 0.56, 189.45 -0.25, 291.18 0 M32 0 C97.4 -0.77, 164.12 -1.44, 291.18 0 M291.18 0 C314.23 1.51, 323.41 10.93, 323.18 32 M291.18 0 C311.6 1.91, 324.74 11.28, 323.18 32 M323.18 32 C324.17 161.54, 323.56 289.17, 323.18 383.29 M323.18 32 C323.58 152.64, 323.2 274.65, 323.18 383.29 M323.18 383.29 C323.68 402.74, 313.66 415.8, 291.18 415.29 M323.18 383.29 C323.59 406.45, 310.51 415.5, 291.18 415.29 M291.18 415.29 C231.66 416.56, 174.38 417.84, 32 415.29 M291.18 415.29 C235.36 417.28, 179.73 417.95, 32 415.29 M32 415.29 C11.15 416.27, -0.86 403.68, 0 383.29 M32 415.29 C8.98 415.59, -1.48 406.81, 0 383.29 M0 383.29 C0.94 259.84, 0.83 135.92, 0 32 M0 383.29 C1.01 306.24, 1.31 229.17, 0 32 M0 32 C1.69 10.67, 12.34 -1.47, 32 0 M0 32 C-1.39 12.81, 12.51 -2.05, 32 0" stroke="#000000" stroke-width="1" fill="none"></path></g><g stroke-linecap="round" transform="translate(61.76983642578125 208.51806640625) rotate(0 141.94482421875 39.66017150878906)"><path d="M21.7 1.6 L262.28 -0.35 L272.78 1.76 L281.07 8.6 L284.35 14.67 L283.16 59.94 L282.97 66.21 L276.82 76.47 L263.06 79.51 L19.58 77.64 L10.3 78.47 L3.88 69.62 L-0.57 65.72 L0.65 14.21 L2.12 8.93 L5.89 3.46 L20.03 1.05" stroke="none" stroke-width="0" fill="#fff"></path><path d="M19.83 0 M19.83 0 C72.57 0.87, 123.43 1.28, 264.06 0 M19.83 0 C87.23 -2.26, 153.56 -1.89, 264.06 0 M264.06 0 C277.2 1.22, 284.96 6.81, 283.89 19.83 M264.06 0 C276.83 -1.14, 286.14 5.73, 283.89 19.83 M283.89 19.83 C283.32 29.42, 283.39 41.29, 283.89 59.49 M283.89 19.83 C283.92 33.45, 284.97 47.5, 283.89 59.49 M283.89 59.49 C284.52 72.02, 279.11 78.04, 264.06 79.32 M283.89 59.49 C283.19 70.44, 278.66 81.02, 264.06 79.32 M264.06 79.32 C176.9 81.69, 91.83 79.75, 19.83 79.32 M264.06 79.32 C203.21 77.61, 142.19 78.46, 19.83 79.32 M19.83 79.32 C6.28 81.3, -1.49 72.73, 0 59.49 M19.83 79.32 C5.39 79.13, -1.46 71.4, 0 59.49 M0 59.49 C0.63 46.4, 1.58 31.93, 0 19.83 M0 59.49 C-0.55 51.37, 0.89 41.9, 0 19.83 M0 19.83 C1.88 5.63, 5.25 0.59, 19.83 0 M0 19.83 C-0.86 8.65, 8.71 2.05, 19.83 0" stroke="#000000" stroke-width="1" fill="none"></path></g></svg>