<svg version="1.1" xmlns="http://www.w3.org/2000/svg" viewBox="0 0 339.3333740234375 338" width="339.3333740234375" height="338">
  <!-- svg-source:excalidraw -->
  
  <defs>
    <style class="style-fonts">
      @font-face {
        font-family: "Virgil";
        src: url("https://excalidraw.com/Virgil.woff2");
      }
      @font-face {
        font-family: "Cascadia";
        src: url("https://excalidraw.com/Cascadia.woff2");
      }
    </style>
  </defs>
  <g stroke-linecap="round" transform="translate(10 10) rotate(0 159.66668701171875 159)"><path d="M206.34 6.73 C221.18 8.62, 236.27 18.42, 249.13 27.13 C262 35.85, 273.72 46.92, 283.53 59.02 C293.34 71.12, 302.19 85.14, 307.99 99.74 C313.79 114.34, 317.04 130.99, 318.32 146.62 C319.61 162.24, 319.01 178.36, 315.67 193.48 C312.34 208.6, 306.02 223.76, 298.3 237.33 C290.58 250.9, 280.99 264.24, 269.34 274.91 C257.69 285.58, 242.77 294.39, 228.39 301.35 C214.01 308.31, 198.4 314.19, 183.06 316.68 C167.72 319.17, 151.85 318.52, 136.38 316.3 C120.9 314.07, 104.5 310.24, 90.21 303.34 C75.91 296.45, 62.1 285.77, 50.6 274.94 C39.09 264.1, 28.85 251.66, 21.19 238.33 C13.54 224.99, 8.17 209.93, 4.68 194.92 C1.19 179.91, -0.85 163.75, 0.26 148.25 C1.36 132.74, 5.51 116.7, 11.31 101.87 C17.11 87.03, 25.54 71.62, 35.08 59.24 C44.61 46.87, 55.66 36.17, 68.52 27.62 C81.38 19.08, 97.24 12.41, 112.23 7.96 C127.23 3.51, 141.01 0.41, 158.49 0.93 C175.97 1.45, 205.6 8.22, 217.11 11.08 C228.61 13.94, 228.3 15.48, 227.5 18.1 M176.75 2.02 C192.16 1.13, 210.63 7.08, 224.92 13.1 C239.21 19.13, 250.89 27.79, 262.49 38.17 C274.09 48.54, 286.03 61.94, 294.52 75.37 C303 88.8, 309.07 103.96, 313.39 118.75 C317.71 133.54, 320.76 148.57, 320.42 164.11 C320.09 179.66, 316.64 197.25, 311.39 212.04 C306.14 226.82, 298.51 240.24, 288.92 252.83 C279.33 265.41, 266.78 278.02, 253.85 287.54 C240.92 297.06, 226.15 304.8, 211.37 309.93 C196.59 315.06, 180.82 317.9, 165.16 318.32 C149.5 318.74, 132.47 316.65, 117.43 312.44 C102.4 308.24, 87.85 301.54, 74.94 293.09 C62.03 284.64, 50.22 273.41, 39.95 261.72 C29.68 250.03, 19.89 236.91, 13.32 222.93 C6.76 208.95, 2.28 193.43, 0.56 177.84 C-1.17 162.25, 0.07 144.92, 2.99 129.38 C5.9 113.83, 10.94 98.17, 18.06 84.57 C25.18 70.97, 34.42 59.05, 45.73 47.79 C57.04 36.53, 71.85 24.28, 85.93 17.01 C100.01 9.73, 114.97 6.74, 130.21 4.14 C145.46 1.54, 169.77 1.32, 177.4 1.43 C185.03 1.55, 176.48 2.31, 175.99 4.83" stroke="none" stroke-width="0" fill="#40c057"></path><path d="M212.73 8.88 C227.43 11.37, 242.01 22.58, 254.68 31.9 C267.36 41.23, 279.37 52.34, 288.8 64.8 C298.22 77.26, 306.28 91.87, 311.25 106.69 C316.22 121.51, 318.19 137.89, 318.62 153.7 C319.05 169.51, 317.94 186.47, 313.83 201.54 C309.71 216.61, 302.26 231.01, 293.92 244.12 C285.58 257.22, 275.48 269.89, 263.79 280.18 C252.1 290.47, 238.22 299.68, 223.79 305.86 C209.36 312.04, 192.89 315.76, 177.22 317.26 C161.55 318.76, 145.15 317.76, 129.76 314.88 C114.36 311.99, 98.63 307.31, 84.85 299.93 C71.07 292.56, 58.3 281.91, 47.09 270.64 C35.88 259.37, 24.87 246.19, 17.6 232.31 C10.34 218.43, 6.2 202.53, 3.5 187.36 C0.81 172.19, -0.18 156.76, 1.43 141.31 C3.04 125.85, 6.84 109.06, 13.15 94.62 C19.47 80.17, 28.97 66.49, 39.33 54.62 C49.7 42.74, 62.03 31.53, 75.35 23.36 C88.68 15.18, 104.19 9.35, 119.28 5.57 C134.37 1.78, 149.42 -0.22, 165.89 0.65 C182.37 1.51, 208.8 8.23, 218.13 10.77 C227.46 13.31, 222.77 13.18, 221.86 15.87 M104.07 10.75 C117.08 3, 136.14 1.22, 152.04 0.06 C167.94 -1.1, 184.27 -0.25, 199.45 3.79 C214.63 7.83, 229.66 16.26, 243.11 24.32 C256.55 32.38, 269.69 40.76, 280.1 52.15 C290.5 63.54, 299.02 78.19, 305.54 92.65 C312.06 107.11, 317.27 123.24, 319.22 138.92 C321.16 154.61, 320.19 171.31, 317.2 186.77 C314.2 202.22, 308.58 217.99, 301.26 231.63 C293.95 245.28, 284.26 257.49, 273.32 268.64 C262.38 279.8, 249.35 290.72, 235.62 298.56 C221.9 306.41, 205.94 312.67, 190.95 315.72 C175.96 318.77, 161.21 318.34, 145.68 316.88 C130.16 315.43, 112.43 313, 97.8 306.99 C83.17 300.97, 70 290.89, 57.91 280.8 C45.82 270.71, 33.94 259.27, 25.24 246.44 C16.54 233.61, 9.92 218.89, 5.72 203.81 C1.52 188.74, -0.16 171.88, 0.05 155.97 C0.26 140.06, 2.06 123.5, 6.98 108.36 C11.91 93.22, 20.14 77.97, 29.62 65.13 C39.1 52.28, 51.3 40.64, 63.85 31.32 C76.39 22, 97.96 12.24, 104.89 9.22 C111.83 6.2, 104.68 10.82, 105.44 13.19" stroke="#000000" stroke-width="1" fill="none"></path></g><g stroke-linecap="round"><g transform="translate(306.66557806459696 90.53127449876635) rotate(6.1440008559890575 -30.485590289457377 30.782948534330927)" fill-rule="evenodd"><path d="M1.7 -0.32 L-50.62 45.31 L-72.47 60.87 L-58.41 59 L-37.21 49.45 L-8.88 33.34 L4.84 23.81 L10.95 17.76 L7.93 9.95 L1.87 -0.4" stroke="none" stroke-width="0" fill="#87ceeb" fill-rule="evenodd"></path><path d="M-0.09 0.28 C-12.07 10.64, -73 58.57, -71.68 62.66 C-70.36 66.76, -4.13 35.17, 7.84 24.84 C19.81 14.52, 1.31 4.75, 0.15 0.72 M-1.6 -0.61 C-13.78 9.36, -74.36 57, -72.81 60.89 C-71.27 64.78, -4.56 33.11, 7.66 22.72 C19.87 12.33, 1.77 2.1, 0.48 -1.46" stroke="#000000" stroke-width="1" fill="none"></path></g></g><mask></mask><g stroke-linecap="round"><g transform="translate(217.22327462493251 136.57186537803443) rotate(0 -8.699115933891733 -59.767206746814566)"><path d="M-0.86 -0.06 C-3.74 -19.95, -14.86 -99.45, -17.86 -119.48 M0.89 -1.13 C-2.01 -20.81, -14.88 -98.2, -18.29 -117.89" stroke="#000000" stroke-width="1" fill="none"></path></g></g><mask></mask><g stroke-linecap="round"><g transform="translate(208.74924021718266 141.27967663828463) rotate(0 -67.77967414113863 -46.346173869118786)"><path d="M0.08 -0.53 C-22.27 -15.79, -112.46 -77.26, -134.84 -92.5 M-1.33 1.8 C-23.75 -13.76, -113.45 -78.54, -135.64 -94.49" stroke="#000000" stroke-width="1" fill="none"></path></g></g><mask></mask><g stroke-linecap="round"><g transform="translate(206.86612864343306 149.7537110460343) rotate(0 -93.48592669408123 -5.4418001911589045)"><path d="M-0.52 -1.11 C-31.97 -3.17, -156.16 -10.11, -187.58 -11.8 M1.41 0.92 C-30.28 -1.07, -157.02 -8.92, -188.39 -10.77" stroke="#000000" stroke-width="1" fill="none"></path></g></g><mask></mask><g stroke-linecap="round"><g transform="translate(210.63233024034867 152.10761667615947) rotate(0 -85.91828194198416 44.18962531165323)"><path d="M-0.59 -0.42 C-29.18 14.26, -143.74 74.13, -172.4 89 M1.31 -1.68 C-27.35 13.04, -144.06 74.85, -173.14 90.06" stroke="#000000" stroke-width="1" fill="none"></path></g></g><mask></mask><g stroke-linecap="round"><g transform="translate(213.92780243264042 154.932294812076) rotate(0 -41.4102474488771 80.19253674928439)"><path d="M-0.76 0.27 C-14.51 27.02, -69.45 133, -83.22 159.69 M1.05 -0.64 C-12.76 26.36, -69.71 133.94, -83.87 161.03" stroke="#000000" stroke-width="1" fill="none"></path></g></g><mask></mask><g stroke-linecap="round"><g transform="translate(219.57715870447373 152.10761667615947) rotate(0 24.754551213774562 61.86153614651488)"><path d="M-0.6 0.78 C7.9 21.26, 41.72 102.96, 50.1 123.57 M1.29 0.15 C9.76 20.19, 41.54 101.15, 49.51 121.57" stroke="#000000" stroke-width="1" fill="none"></path></g></g><mask></mask><g stroke-linecap="round"><g transform="translate(226.16810308905758 150.69527760820114) rotate(0 47.657497842036776 24.43725953884359)"><path d="M1.1 0.37 C16.7 8.32, 77.29 40.2, 92.83 48.21 M0.22 -0.48 C16.26 7.56, 79.47 41.02, 95.09 49.35" stroke="#000000" stroke-width="1" fill="none"></path></g></g><mask></mask><g stroke-linecap="round"><g transform="translate(225.69730903268214 137.51343194020126) rotate(0 25.533833956974718 -41.58428586132115)"><path d="M-0.64 0.3 C7.39 -13.62, 40.78 -69.64, 49.31 -83.47 M1.22 -0.59 C9.56 -14.41, 43.56 -69.01, 51.71 -82.5" stroke="#000000" stroke-width="1" fill="none"></path></g></g><mask></mask></svg>