<svg version="1.1" xmlns="http://www.w3.org/2000/svg" viewBox="0 0 96.0546875 557.0496673583984" width="96.0546875" height="557.0496673583984">
  <!-- svg-source:excalidraw -->
  
  <defs>
    <style class="style-fonts">
      @font-face {
        font-family: "Virgil";
        src: url("https://excalidraw.com/Virgil.woff2");
      }
      @font-face {
        font-family: "Cascadia";
        src: url("https://excalidraw.com/Cascadia.woff2");
      }
    </style>
  </defs>
  <g stroke-linecap="round" transform="translate(59.13018798828125 10) rotate(0 13.462249755859375 268.5248336791992)"><path d="M7.78 0.57 L24.63 1.8 L24.4 1.8 L28.38 6.36 L28.72 528.34 L25.81 535.97 L20.48 538.83 L2.4 537.67 L-0.14 534.16 L1.9 529.08 L-0.49 7.67 L2.85 0.24 L4.97 1.49" stroke="none" stroke-width="0" fill="#fd7e14"></path><path d="M6.73 0 M6.73 0 C10.63 0.61, 16.23 1.26, 20.19 0 M6.73 0 C11.1 -0.38, 16.11 0.49, 20.19 0 M20.19 0 C26.53 -0.44, 25.22 3.96, 26.92 6.73 M20.19 0 C23.87 -0.55, 28.61 3.39, 26.92 6.73 M26.92 6.73 C27.48 181.63, 26.8 354.73, 26.92 530.32 M26.92 6.73 C27.9 130.47, 27.92 254.13, 26.92 530.32 M26.92 530.32 C27.99 533.77, 24.22 537.08, 20.19 537.05 M26.92 530.32 C28.9 535.67, 24.75 539.05, 20.19 537.05 M20.19 537.05 C17.16 535.96, 11.98 535.65, 6.73 537.05 M20.19 537.05 C16.33 537.3, 13.59 536.71, 6.73 537.05 M6.73 537.05 C2.42 537.4, 0.16 535.92, 0 530.32 M6.73 537.05 C2.09 534.92, 0.17 536.05, 0 530.32 M0 530.32 C2.01 413.6, 1.35 298.75, 0 6.73 M0 530.32 C-0.11 347.11, -0.25 163.45, 0 6.73 M0 6.73 C1.49 0.38, 3.07 0.15, 6.73 0 M0 6.73 C1.12 0.51, 4.19 -2.03, 6.73 0" stroke="#000000" stroke-width="1" fill="none"></path></g><g stroke-linecap="round" transform="translate(10 23.2764892578125) rotate(0 25.914154052734375 59.808189392089844)"><path d="M11.19 1.07 L42.32 -1.31 L48.51 3.02 L52.49 7.5 L53.36 108.24 L50.27 113.85 L43.99 118.22 L8.35 121.1 L5.12 118.46 L-0.56 113.08 L2 11.15 L1.8 2.61 L8.42 0.26 L13.9 -0.14" stroke="none" stroke-width="0" fill="#fff"></path><path d="M12.96 0 M12.96 0 C16.86 0.61, 23.28 1.19, 38.87 0 M12.96 0 C21.96 1.15, 30.73 -0.74, 38.87 0 M38.87 0 C49.14 0.55, 51.72 2.5, 51.83 12.96 M38.87 0 C48.97 -1.44, 52.01 6.37, 51.83 12.96 M51.83 12.96 C53.17 47.43, 52.43 80.58, 51.83 106.66 M51.83 12.96 C52.72 44.41, 51.29 75.24, 51.83 106.66 M51.83 106.66 C51.2 116.66, 48.36 119.94, 38.87 119.62 M51.83 106.66 C53.55 115.91, 46.46 120.99, 38.87 119.62 M38.87 119.62 C28.02 118.99, 18.65 120.26, 12.96 119.62 M38.87 119.62 C29.68 119.27, 18.64 119.35, 12.96 119.62 M12.96 119.62 C4.9 117.63, -0.85 116.64, 0 106.66 M12.96 119.62 C2.58 119.26, -2.07 115.91, 0 106.66 M0 106.66 C1.93 73.33, 0.56 40.37, 0 12.96 M0 106.66 C0.52 87.95, 1.03 68.26, 0 12.96 M0 12.96 C1.29 4.48, 4.24 -1.87, 12.96 0 M0 12.96 C-0.82 4.96, 5.76 2.01, 12.96 0" stroke="#000000" stroke-width="1" fill="none"></path></g></svg>