<svg version="1.1" xmlns="http://www.w3.org/2000/svg" viewBox="0 0 504.4627685546875 510.09095001220703" width="504.4627685546875" height="510.09095001220703">
  <!-- svg-source:excalidraw -->
  
  <defs>
    <style class="style-fonts">
      @font-face {
        font-family: "Virgil";
        src: url("https://excalidraw.com/Virgil.woff2");
      }
      @font-face {
        font-family: "Cascadia";
        src: url("https://excalidraw.com/Cascadia.woff2");
      }
    </style>
  </defs>
  <g stroke-linecap="round" transform="translate(10 10) rotate(0 242.23138427734375 245.04547500610352)"><path d="M217.08 1.87 C235.82 -3.86, 257.59 0.51, 277.53 3.21 C297.46 5.9, 318.13 10.33, 336.69 18.03 C355.26 25.74, 373.05 36.9, 388.91 49.43 C404.78 61.96, 419.48 77.44, 431.9 93.21 C444.31 108.97, 455.23 125.48, 463.43 144.02 C471.62 162.56, 477.84 184.25, 481.09 204.45 C484.34 224.66, 484.6 245.25, 482.92 265.26 C481.24 285.27, 477.49 305.41, 471 324.51 C464.52 343.6, 455.06 362.64, 444.02 379.82 C432.97 397.01, 419.66 414.04, 404.71 427.59 C389.77 441.14, 372.13 451.75, 354.35 461.13 C336.57 470.51, 317.58 479.15, 298.04 483.86 C278.51 488.57, 257.4 489.94, 237.14 489.4 C216.88 488.86, 195.88 485.91, 176.49 480.61 C157.09 475.32, 137.88 467.6, 120.74 457.63 C103.61 447.65, 88.06 434.96, 73.67 420.75 C59.29 406.53, 44.9 389.85, 34.46 372.34 C24.01 354.82, 16.69 334.94, 11.02 315.64 C5.35 296.34, 1.54 276.77, 0.42 256.56 C-0.7 236.36, 0.15 214.57, 4.3 194.41 C8.46 174.26, 16.26 153.95, 25.35 135.64 C34.45 117.33, 45.86 99.98, 58.87 84.55 C71.87 69.13, 86.81 54.59, 103.37 43.08 C119.94 31.56, 137.31 22.46, 158.28 15.49 C179.24 8.51, 215.35 2.94, 229.15 1.22 C242.95 -0.49, 241.03 1.13, 241.08 5.19 M129.59 28.81 C144.69 16.28, 167.17 9.58, 187.02 4.93 C206.88 0.27, 228.43 0.2, 248.71 0.88 C268.99 1.56, 289.3 3.73, 308.73 9 C328.15 14.27, 347.83 22.11, 365.25 32.51 C382.68 42.91, 399.02 57.01, 413.26 71.39 C427.5 85.76, 440.55 101.68, 450.68 118.76 C460.82 135.83, 468.41 154.38, 474.07 173.81 C479.74 193.24, 484.03 214.85, 484.69 235.32 C485.35 255.8, 482.35 276.83, 478.06 296.66 C473.76 316.49, 467.82 336.09, 458.95 354.3 C450.07 372.5, 437.86 390.48, 424.82 405.89 C411.78 421.31, 397.26 435.43, 380.71 446.78 C364.16 458.13, 344.5 467, 325.51 473.99 C306.52 480.97, 286.53 486.33, 266.77 488.68 C247.01 491.04, 226.56 491.07, 206.95 488.1 C187.34 485.13, 167.75 478.75, 149.11 470.87 C130.48 462.99, 111.42 453.1, 95.15 440.83 C78.88 428.55, 63.79 413.29, 51.5 397.22 C39.2 381.16, 29.2 363.13, 21.4 344.43 C13.59 325.73, 7.89 305.2, 4.66 285.03 C1.43 264.87, 0.29 243.46, 2.01 223.44 C3.73 203.43, 8.43 184.32, 14.97 164.96 C21.52 145.61, 30.29 124.19, 41.28 107.32 C52.28 90.44, 65.87 77.03, 80.94 63.74 C96.02 50.44, 123.3 32.69, 131.75 27.53 C140.19 22.37, 129.78 29.14, 131.64 32.77" stroke="none" stroke-width="0" fill="#deb887"></path><path d="M179.36 9.34 C196.68 0.34, 219.43 0.18, 239.6 -0.12 C259.76 -0.42, 280.78 2.66, 300.35 7.56 C319.92 12.47, 339.35 19.81, 357.03 29.32 C374.7 38.84, 391.69 50.93, 406.39 64.65 C421.1 78.37, 434.29 94.74, 445.28 111.66 C456.28 128.58, 465.77 147.13, 472.35 166.17 C478.93 185.22, 483.52 205.67, 484.77 225.92 C486.01 246.16, 483.36 267.4, 479.83 287.66 C476.29 307.92, 471.82 328.76, 463.55 347.46 C455.27 366.16, 443 384.09, 430.19 399.85 C417.38 415.62, 402.71 430.17, 386.7 442.05 C370.7 453.93, 352.59 463.45, 334.15 471.14 C315.71 478.83, 295.79 485.15, 276.05 488.19 C256.3 491.22, 235.62 491.73, 215.69 489.35 C195.76 486.97, 175.22 481.26, 156.46 473.91 C137.7 466.55, 119.52 457.09, 103.13 445.21 C86.74 433.33, 71.16 418.1, 58.12 402.63 C45.07 387.15, 33.85 370.58, 24.85 352.36 C15.85 334.14, 8.35 313.4, 4.11 293.28 C-0.14 273.17, -1.83 251.73, -0.6 231.69 C0.62 211.65, 5.4 192.2, 11.46 173.03 C17.51 153.85, 25.14 134.23, 35.71 116.65 C46.28 99.06, 60.4 81.79, 74.89 67.5 C89.38 53.22, 104.17 41.1, 122.65 30.93 C141.14 20.76, 173.54 9.97, 185.8 6.48 C198.06 2.99, 195.2 6.16, 196.21 9.99 M174.18 9.12 C191.3 0.28, 212.55 2.41, 232.5 1.59 C252.44 0.78, 273.99 0.34, 293.88 4.25 C313.77 8.17, 334 15.93, 351.86 25.09 C369.71 34.24, 386.04 45.93, 401.03 59.21 C416.02 72.48, 430.55 88.07, 441.78 104.73 C453.01 121.4, 461.59 139.89, 468.42 159.2 C475.26 178.51, 480.48 200.32, 482.8 220.58 C485.13 240.83, 485.39 260.58, 482.37 280.74 C479.35 300.89, 472.85 322.76, 464.68 341.51 C456.51 360.26, 445.22 377.36, 433.35 393.23 C421.47 409.11, 409.12 424.3, 393.44 436.76 C377.76 449.22, 357.73 459.48, 339.29 467.98 C320.84 476.48, 302.64 484.19, 282.79 487.77 C262.93 491.35, 240.09 491.15, 220.15 489.46 C200.2 487.77, 181.69 484.29, 163.11 477.63 C144.52 470.97, 125.63 461.16, 108.65 449.49 C91.67 437.81, 74.92 422.66, 61.22 407.57 C47.53 392.47, 35.6 376.72, 26.48 358.93 C17.37 341.14, 11 321.01, 6.56 300.81 C2.12 280.61, -0.45 258.02, -0.13 237.7 C0.19 217.39, 3.12 198.1, 8.5 178.93 C13.88 159.77, 21.96 140.59, 32.13 122.72 C42.29 104.86, 55.11 86.33, 69.51 71.73 C83.91 57.13, 101.48 45.22, 118.53 35.14 C135.59 25.06, 162.69 14.38, 171.82 11.25 C180.94 8.12, 171.76 12.56, 173.31 16.35" stroke="#000000" stroke-width="1" fill="none"></path></g><g stroke-linecap="round" transform="translate(117.34906005859375 103.67838287353516) rotate(0 32.6492919921875 30.529541015625)"><path d="M45.32 2.16 C51.61 4.39, 59.49 11.38, 62.74 17.29 C65.99 23.21, 66.79 31.43, 64.85 37.67 C62.9 43.91, 56.74 50.91, 51.09 54.71 C45.45 58.51, 37.68 60.85, 30.96 60.46 C24.23 60.07, 16 56.69, 10.74 52.36 C5.48 48.03, 0.25 41.1, -0.6 34.49 C-1.45 27.87, 1.5 18.36, 5.64 12.68 C9.78 7.01, 15.84 1.02, 24.24 0.42 C32.64 -0.18, 49.86 6.42, 56.05 9.07 C62.23 11.73, 61.81 16.13, 61.35 16.34 M20.25 3.04 C26.55 0.28, 36.41 0.77, 42.77 2.67 C49.12 4.56, 54.7 9.19, 58.37 14.41 C62.05 19.63, 65.17 27.61, 64.82 33.99 C64.46 40.37, 61.5 48.18, 56.24 52.7 C50.98 57.22, 40.26 60.9, 33.27 61.12 C26.29 61.35, 19.69 57.97, 14.33 54.04 C8.97 50.12, 3.11 43.81, 1.1 37.59 C-0.92 31.36, -0.69 22.52, 2.26 16.71 C5.21 10.9, 15.69 5.11, 18.79 2.73 C21.89 0.35, 20.74 1.97, 20.86 2.44" stroke="none" stroke-width="0" fill="#d2691e"></path><path d="M18.67 2.11 C24.33 -0.97, 33.85 -1.72, 40.77 0.34 C47.7 2.39, 56.23 8.79, 60.21 14.44 C64.18 20.09, 65.36 28.02, 64.64 34.21 C63.91 40.41, 60.88 47.28, 55.85 51.61 C50.83 55.95, 41.74 59.61, 34.5 60.2 C27.26 60.8, 17.88 58.84, 12.43 55.18 C6.98 51.52, 3.4 44.73, 1.8 38.24 C0.21 31.76, -1.17 22.58, 2.87 16.26 C6.92 9.95, 21 2.86, 26.07 0.38 C31.14 -2.11, 33.24 0.89, 33.32 1.36 M48.58 2.45 C54.59 4.98, 59.96 11.7, 62.52 17.66 C65.09 23.63, 66.19 32.04, 63.97 38.24 C61.76 44.43, 55.2 51.03, 49.24 54.83 C43.28 58.63, 34.85 61.79, 28.21 61.03 C21.57 60.27, 14.17 55, 9.39 50.29 C4.62 45.57, 0.23 39.22, -0.45 32.74 C-1.13 26.26, 0.79 16.9, 5.33 11.42 C9.87 5.94, 19.89 1.43, 26.81 -0.14 C33.74 -1.7, 43.3 1.2, 46.88 2.03 C50.46 2.86, 48.57 4.12, 48.28 4.84" stroke="#000000" stroke-width="1" fill="none"></path></g><g stroke-linecap="round" transform="translate(154.60394287109375 254.14490509033203) rotate(0 30.478363037109375 29.76104736328125)"><path d="M33.53 1.11 C39.84 1.6, 48.25 5.29, 52.96 9.75 C57.67 14.21, 61.47 21.68, 61.79 27.88 C62.12 34.08, 58.91 41.96, 54.91 46.95 C50.91 51.95, 44.26 56.4, 37.78 57.87 C31.3 59.34, 22.06 58.43, 16.02 55.77 C9.98 53.12, 4.06 47.95, 1.55 41.97 C-0.96 35.98, -1.19 25.98, 0.98 19.85 C3.15 13.72, 8.61 8.42, 14.56 5.17 C20.5 1.93, 32.62 1.07, 36.62 0.37 C40.63 -0.32, 38.65 0.39, 38.59 1 M37.77 1.58 C43.8 2.79, 51.71 6.99, 55.52 12.23 C59.34 17.47, 61.39 26.59, 60.66 33.04 C59.94 39.5, 55.84 46.41, 51.17 50.96 C46.51 55.51, 39.09 59.94, 32.65 60.34 C26.22 60.74, 18.02 57.29, 12.56 53.38 C7.1 49.48, 1.47 42.88, -0.13 36.9 C-1.73 30.93, -0.2 23.02, 2.97 17.54 C6.14 12.06, 12.87 6.76, 18.91 4.03 C24.94 1.3, 35.7 1.62, 39.19 1.18 C42.68 0.73, 39.94 0.73, 39.86 1.34" stroke="none" stroke-width="0" fill="#d2691e"></path><path d="M31.55 1.03 C38.04 0.94, 47.43 4.08, 52.2 8.39 C56.97 12.69, 59.61 20.71, 60.19 26.87 C60.77 33.03, 59.33 40.03, 55.68 45.36 C52.02 50.7, 44.4 56.87, 38.25 58.87 C32.11 60.86, 24.54 59.84, 18.8 57.36 C13.07 54.88, 6.99 49.66, 3.84 43.99 C0.68 38.33, -1.5 29.7, -0.12 23.35 C1.27 17.01, 5.94 9.69, 12.17 5.91 C18.39 2.13, 32.7 1.26, 37.24 0.66 C41.79 0.07, 39.56 2, 39.46 2.35 M31.87 -0.69 C38.14 -0.37, 46.79 4.86, 51.48 9.12 C56.18 13.39, 59.27 18.65, 60.05 24.89 C60.83 31.13, 59.72 41.15, 56.16 46.55 C52.59 51.95, 45.2 55.65, 38.68 57.28 C32.15 58.9, 23.08 58.59, 17 56.28 C10.92 53.98, 4.74 48.9, 2.2 43.44 C-0.34 37.98, 0.29 29.74, 1.76 23.49 C3.23 17.24, 5.82 10.01, 11.03 5.95 C16.24 1.89, 29.44 -0.21, 33.01 -0.88 C36.57 -1.55, 32.82 1.29, 32.42 1.92" stroke="#000000" stroke-width="1" fill="none"></path></g><g stroke-linecap="round" transform="translate(339.59320068359375 169.1513442993164) rotate(0 30.210693359375 29.72491455078125)"><path d="M30.17 0.85 C36.22 0.17, 44.25 1.49, 49.21 5.45 C54.17 9.41, 58.56 18.21, 59.94 24.62 C61.32 31.02, 60.73 38.3, 57.48 43.86 C54.24 49.41, 46.5 55.61, 40.48 57.96 C34.46 60.31, 27.29 60.01, 21.39 57.95 C15.48 55.88, 8.42 50.9, 5.06 45.56 C1.7 40.23, 0.26 32.14, 1.23 25.93 C2.2 19.73, 5.02 12.45, 10.88 8.32 C16.74 4.19, 30.68 1.99, 36.37 1.15 C42.06 0.31, 44.87 2.8, 45.03 3.28 M31.36 0.36 C37.42 -0.28, 44.85 2.3, 49.63 6.22 C54.4 10.14, 58.92 17.7, 60 23.88 C61.07 30.06, 59.37 37.49, 56.08 43.28 C52.79 49.08, 46.4 56.49, 40.25 58.67 C34.1 60.85, 25.2 58.71, 19.19 56.37 C13.18 54.04, 7.4 49.86, 4.18 44.66 C0.97 39.46, -1.18 31.28, -0.08 25.16 C1.02 19.03, 5.7 12.19, 10.79 7.93 C15.88 3.66, 27 0.57, 30.45 -0.44 C33.89 -1.45, 31.5 1.09, 31.44 1.85" stroke="none" stroke-width="0" fill="#d2691e"></path><path d="M33.23 1.11 C39.48 1.59, 47.82 5.28, 52.5 9.74 C57.17 14.19, 60.94 21.65, 61.26 27.85 C61.58 34.04, 58.4 41.9, 54.43 46.9 C50.46 51.89, 43.88 56.33, 37.45 57.8 C31.03 59.27, 21.87 58.35, 15.88 55.71 C9.89 53.06, 4.01 47.9, 1.53 41.92 C-0.96 35.94, -1.18 25.95, 0.97 19.83 C3.12 13.7, 8.54 8.41, 14.43 5.17 C20.32 1.93, 32.33 1.07, 36.3 0.37 C40.28 -0.32, 38.31 0.39, 38.26 1 M37.43 1.58 C43.41 2.78, 51.25 6.98, 55.03 12.22 C58.82 17.45, 60.85 26.56, 60.13 33 C59.41 39.45, 55.35 46.36, 50.72 50.9 C46.09 55.45, 38.74 59.87, 32.37 60.27 C25.99 60.67, 17.87 57.22, 12.45 53.32 C7.03 49.41, 1.45 42.82, -0.14 36.86 C-1.72 30.89, -0.21 23, 2.94 17.52 C6.09 12.05, 12.76 6.75, 18.75 4.02 C24.73 1.3, 35.39 1.62, 38.85 1.17 C42.31 0.73, 39.6 0.73, 39.52 1.34" stroke="#000000" stroke-width="1" fill="none"></path></g><g stroke-linecap="round" transform="translate(314.7584228515625 379.8040237426758) rotate(0 29.91571044921875 28.18487548828125)"><path d="M28.9 -0.17 C34.92 -0.66, 42.67 2.37, 47.84 6.13 C53.02 9.89, 58.71 16.42, 59.94 22.39 C61.17 28.37, 58.44 36.68, 55.24 41.97 C52.03 47.26, 46.49 51.99, 40.72 54.13 C34.94 56.27, 26.57 56.69, 20.61 54.8 C14.64 52.91, 8.37 47.85, 4.94 42.81 C1.52 37.77, -0.96 30.55, 0.08 24.55 C1.11 18.55, 5.07 10.95, 11.13 6.8 C17.2 2.66, 31.48 0.43, 36.47 -0.31 C41.45 -1.04, 41.34 1.8, 41.02 2.39 M15.87 3.67 C21.01 0.95, 30.71 0.61, 36.94 2.09 C43.17 3.56, 49.69 7.75, 53.25 12.52 C56.81 17.29, 58.69 24.89, 58.31 30.72 C57.92 36.54, 55.18 43.07, 50.94 47.49 C46.7 51.9, 39.09 56.36, 32.85 57.21 C26.62 58.07, 18.58 55.98, 13.52 52.64 C8.46 49.3, 4.28 42.98, 2.49 37.15 C0.7 31.33, 0.43 23.43, 2.79 17.69 C5.15 11.96, 14.2 5.12, 16.66 2.76 C19.12 0.39, 17.47 3.16, 17.56 3.52" stroke="none" stroke-width="0" fill="#d2691e"></path><path d="M27.36 -0.17 C33.47 -1.01, 41.55 1.66, 46.89 5.17 C52.23 8.69, 57.76 15.21, 59.4 20.92 C61.04 26.62, 59.56 33.96, 56.76 39.41 C53.95 44.86, 48.24 50.87, 42.58 53.63 C36.91 56.38, 28.81 57.43, 22.78 55.92 C16.75 54.4, 10.18 49.43, 6.41 44.52 C2.63 39.61, -0.23 32.44, 0.11 26.46 C0.46 20.49, 3.29 13.02, 8.48 8.66 C13.68 4.31, 26.84 1.62, 31.27 0.31 C35.7 -1, 35.03 0.4, 35.05 0.79 M40.42 2.56 C46.17 4.63, 54.94 11.52, 58.04 16.67 C61.13 21.83, 60.59 27.62, 59.01 33.49 C57.44 39.36, 53.74 47.95, 48.59 51.9 C43.43 55.84, 34.56 57.49, 28.07 57.17 C21.58 56.85, 14.18 54.08, 9.67 49.97 C5.15 45.85, 1.56 38.93, 0.98 32.46 C0.41 25.98, 2.72 16.21, 6.21 11.1 C9.69 6, 16.21 3.12, 21.91 1.82 C27.61 0.53, 37.05 3.17, 40.41 3.35 C43.77 3.52, 41.96 2.46, 42.09 2.87" stroke="#000000" stroke-width="1" fill="none"></path></g><g stroke-linecap="round" transform="translate(140.6778564453125 396.1112747192383) rotate(0 29.91571044921875 28.18487548828125)"><path d="M28.9 -0.17 C34.92 -0.66, 42.67 2.37, 47.84 6.13 C53.02 9.89, 58.71 16.42, 59.94 22.39 C61.17 28.37, 58.44 36.68, 55.24 41.97 C52.03 47.26, 46.49 51.99, 40.72 54.13 C34.94 56.27, 26.57 56.69, 20.61 54.8 C14.64 52.91, 8.37 47.85, 4.94 42.81 C1.52 37.77, -0.96 30.55, 0.08 24.55 C1.11 18.55, 5.07 10.95, 11.13 6.8 C17.2 2.66, 31.48 0.43, 36.47 -0.31 C41.45 -1.04, 41.34 1.8, 41.02 2.39 M15.87 3.67 C21.01 0.95, 30.71 0.61, 36.94 2.09 C43.17 3.56, 49.69 7.75, 53.25 12.52 C56.81 17.29, 58.69 24.89, 58.31 30.72 C57.92 36.54, 55.18 43.07, 50.94 47.49 C46.7 51.9, 39.09 56.36, 32.85 57.21 C26.62 58.07, 18.58 55.98, 13.52 52.64 C8.46 49.3, 4.28 42.98, 2.49 37.15 C0.7 31.33, 0.43 23.43, 2.79 17.69 C5.15 11.96, 14.2 5.12, 16.66 2.76 C19.12 0.39, 17.47 3.16, 17.56 3.52" stroke="none" stroke-width="0" fill="#d2691e"></path><path d="M27.36 -0.17 C33.47 -1.01, 41.55 1.66, 46.89 5.17 C52.23 8.69, 57.76 15.21, 59.4 20.92 C61.04 26.62, 59.56 33.96, 56.76 39.41 C53.95 44.86, 48.24 50.87, 42.58 53.63 C36.91 56.38, 28.81 57.43, 22.78 55.92 C16.75 54.4, 10.18 49.43, 6.41 44.52 C2.63 39.61, -0.23 32.44, 0.11 26.46 C0.46 20.49, 3.29 13.02, 8.48 8.66 C13.68 4.31, 26.84 1.62, 31.27 0.31 C35.7 -1, 35.03 0.4, 35.05 0.79 M40.42 2.56 C46.17 4.63, 54.94 11.52, 58.04 16.67 C61.13 21.83, 60.59 27.62, 59.01 33.49 C57.44 39.36, 53.74 47.95, 48.59 51.9 C43.43 55.84, 34.56 57.49, 28.07 57.17 C21.58 56.85, 14.18 54.08, 9.67 49.97 C5.15 45.85, 1.56 38.93, 0.98 32.46 C0.41 25.98, 2.72 16.21, 6.21 11.1 C9.69 6, 16.21 3.12, 21.91 1.82 C27.61 0.53, 37.05 3.17, 40.41 3.35 C43.77 3.52, 41.96 2.46, 42.09 2.87" stroke="#000000" stroke-width="1" fill="none"></path></g><g stroke-linecap="round" transform="translate(241.58526611328125 73.96747589111328) rotate(0 29.91571044921875 28.18487548828125)"><path d="M28.9 -0.17 C34.92 -0.66, 42.67 2.37, 47.84 6.13 C53.02 9.89, 58.71 16.42, 59.94 22.39 C61.17 28.37, 58.44 36.68, 55.24 41.97 C52.03 47.26, 46.49 51.99, 40.72 54.13 C34.94 56.27, 26.57 56.69, 20.61 54.8 C14.64 52.91, 8.37 47.85, 4.94 42.81 C1.52 37.77, -0.96 30.55, 0.08 24.55 C1.11 18.55, 5.07 10.95, 11.13 6.8 C17.2 2.66, 31.48 0.43, 36.47 -0.31 C41.45 -1.04, 41.34 1.8, 41.02 2.39 M15.87 3.67 C21.01 0.95, 30.71 0.61, 36.94 2.09 C43.17 3.56, 49.69 7.75, 53.25 12.52 C56.81 17.29, 58.69 24.89, 58.31 30.72 C57.92 36.54, 55.18 43.07, 50.94 47.49 C46.7 51.9, 39.09 56.36, 32.85 57.21 C26.62 58.07, 18.58 55.98, 13.52 52.64 C8.46 49.3, 4.28 42.98, 2.49 37.15 C0.7 31.33, 0.43 23.43, 2.79 17.69 C5.15 11.96, 14.2 5.12, 16.66 2.76 C19.12 0.39, 17.47 3.16, 17.56 3.52" stroke="none" stroke-width="0" fill="#d2691e"></path><path d="M27.36 -0.17 C33.47 -1.01, 41.55 1.66, 46.89 5.17 C52.23 8.69, 57.76 15.21, 59.4 20.92 C61.04 26.62, 59.56 33.96, 56.76 39.41 C53.95 44.86, 48.24 50.87, 42.58 53.63 C36.91 56.38, 28.81 57.43, 22.78 55.92 C16.75 54.4, 10.18 49.43, 6.41 44.52 C2.63 39.61, -0.23 32.44, 0.11 26.46 C0.46 20.49, 3.29 13.02, 8.48 8.66 C13.68 4.31, 26.84 1.62, 31.27 0.31 C35.7 -1, 35.03 0.4, 35.05 0.79 M40.42 2.56 C46.17 4.63, 54.94 11.52, 58.04 16.67 C61.13 21.83, 60.59 27.62, 59.01 33.49 C57.44 39.36, 53.74 47.95, 48.59 51.9 C43.43 55.84, 34.56 57.49, 28.07 57.17 C21.58 56.85, 14.18 54.08, 9.67 49.97 C5.15 45.85, 1.56 38.93, 0.98 32.46 C0.41 25.98, 2.72 16.21, 6.21 11.1 C9.69 6, 16.21 3.12, 21.91 1.82 C27.61 0.53, 37.05 3.17, 40.41 3.35 C43.77 3.52, 41.96 2.46, 42.09 2.87" stroke="#000000" stroke-width="1" fill="none"></path></g><g stroke-linecap="round" transform="translate(27.02447509765625 210.49585723876953) rotate(0 29.91571044921875 28.18487548828125)"><path d="M28.9 -0.17 C34.92 -0.66, 42.67 2.37, 47.84 6.13 C53.02 9.89, 58.71 16.42, 59.94 22.39 C61.17 28.37, 58.44 36.68, 55.24 41.97 C52.03 47.26, 46.49 51.99, 40.72 54.13 C34.94 56.27, 26.57 56.69, 20.61 54.8 C14.64 52.91, 8.37 47.85, 4.94 42.81 C1.52 37.77, -0.96 30.55, 0.08 24.55 C1.11 18.55, 5.07 10.95, 11.13 6.8 C17.2 2.66, 31.48 0.43, 36.47 -0.31 C41.45 -1.04, 41.34 1.8, 41.02 2.39 M15.87 3.67 C21.01 0.95, 30.71 0.61, 36.94 2.09 C43.17 3.56, 49.69 7.75, 53.25 12.52 C56.81 17.29, 58.69 24.89, 58.31 30.72 C57.92 36.54, 55.18 43.07, 50.94 47.49 C46.7 51.9, 39.09 56.36, 32.85 57.21 C26.62 58.07, 18.58 55.98, 13.52 52.64 C8.46 49.3, 4.28 42.98, 2.49 37.15 C0.7 31.33, 0.43 23.43, 2.79 17.69 C5.15 11.96, 14.2 5.12, 16.66 2.76 C19.12 0.39, 17.47 3.16, 17.56 3.52" stroke="none" stroke-width="0" fill="#d2691e"></path><path d="M27.36 -0.17 C33.47 -1.01, 41.55 1.66, 46.89 5.17 C52.23 8.69, 57.76 15.21, 59.4 20.92 C61.04 26.62, 59.56 33.96, 56.76 39.41 C53.95 44.86, 48.24 50.87, 42.58 53.63 C36.91 56.38, 28.81 57.43, 22.78 55.92 C16.75 54.4, 10.18 49.43, 6.41 44.52 C2.63 39.61, -0.23 32.44, 0.11 26.46 C0.46 20.49, 3.29 13.02, 8.48 8.66 C13.68 4.31, 26.84 1.62, 31.27 0.31 C35.7 -1, 35.03 0.4, 35.05 0.79 M40.42 2.56 C46.17 4.63, 54.94 11.52, 58.04 16.67 C61.13 21.83, 60.59 27.62, 59.01 33.49 C57.44 39.36, 53.74 47.95, 48.59 51.9 C43.43 55.84, 34.56 57.49, 28.07 57.17 C21.58 56.85, 14.18 54.08, 9.67 49.97 C5.15 45.85, 1.56 38.93, 0.98 32.46 C0.41 25.98, 2.72 16.21, 6.21 11.1 C9.69 6, 16.21 3.12, 21.91 1.82 C27.61 0.53, 37.05 3.17, 40.41 3.35 C43.77 3.52, 41.96 2.46, 42.09 2.87" stroke="#000000" stroke-width="1" fill="none"></path></g><g stroke-linecap="round" transform="translate(426.6270751953125 265.8622512817383) rotate(0 29.91571044921875 28.18487548828125)"><path d="M28.9 -0.17 C34.92 -0.66, 42.67 2.37, 47.84 6.13 C53.02 9.89, 58.71 16.42, 59.94 22.39 C61.17 28.37, 58.44 36.68, 55.24 41.97 C52.03 47.26, 46.49 51.99, 40.72 54.13 C34.94 56.27, 26.57 56.69, 20.61 54.8 C14.64 52.91, 8.37 47.85, 4.94 42.81 C1.52 37.77, -0.96 30.55, 0.08 24.55 C1.11 18.55, 5.07 10.95, 11.13 6.8 C17.2 2.66, 31.48 0.43, 36.47 -0.31 C41.45 -1.04, 41.34 1.8, 41.02 2.39 M15.87 3.67 C21.01 0.95, 30.71 0.61, 36.94 2.09 C43.17 3.56, 49.69 7.75, 53.25 12.52 C56.81 17.29, 58.69 24.89, 58.31 30.72 C57.92 36.54, 55.18 43.07, 50.94 47.49 C46.7 51.9, 39.09 56.36, 32.85 57.21 C26.62 58.07, 18.58 55.98, 13.52 52.64 C8.46 49.3, 4.28 42.98, 2.49 37.15 C0.7 31.33, 0.43 23.43, 2.79 17.69 C5.15 11.96, 14.2 5.12, 16.66 2.76 C19.12 0.39, 17.47 3.16, 17.56 3.52" stroke="none" stroke-width="0" fill="#d2691e"></path><path d="M27.36 -0.17 C33.47 -1.01, 41.55 1.66, 46.89 5.17 C52.23 8.69, 57.76 15.21, 59.4 20.92 C61.04 26.62, 59.56 33.96, 56.76 39.41 C53.95 44.86, 48.24 50.87, 42.58 53.63 C36.91 56.38, 28.81 57.43, 22.78 55.92 C16.75 54.4, 10.18 49.43, 6.41 44.52 C2.63 39.61, -0.23 32.44, 0.11 26.46 C0.46 20.49, 3.29 13.02, 8.48 8.66 C13.68 4.31, 26.84 1.62, 31.27 0.31 C35.7 -1, 35.03 0.4, 35.05 0.79 M40.42 2.56 C46.17 4.63, 54.94 11.52, 58.04 16.67 C61.13 21.83, 60.59 27.62, 59.01 33.49 C57.44 39.36, 53.74 47.95, 48.59 51.9 C43.43 55.84, 34.56 57.49, 28.07 57.17 C21.58 56.85, 14.18 54.08, 9.67 49.97 C5.15 45.85, 1.56 38.93, 0.98 32.46 C0.41 25.98, 2.72 16.21, 6.21 11.1 C9.69 6, 16.21 3.12, 21.91 1.82 C27.61 0.53, 37.05 3.17, 40.41 3.35 C43.77 3.52, 41.96 2.46, 42.09 2.87" stroke="#000000" stroke-width="1" fill="none"></path></g></svg>