<svg version="1.1" xmlns="http://www.w3.org/2000/svg" viewBox="0 0 410.28619384765625 269.9980163574219" width="410.28619384765625" height="269.9980163574219">
  <!-- svg-source:excalidraw -->
  
  <defs>
    <style class="style-fonts">
      @font-face {
        font-family: "Virgil";
        src: url("https://excalidraw.com/Virgil.woff2");
      }
      @font-face {
        font-family: "Cascadia";
        src: url("https://excalidraw.com/Cascadia.woff2");
      }
    </style>
  </defs>
  <g stroke-linecap="round" transform="translate(10 10) rotate(0 195.14309692382812 124.99900817871094)"><path d="M33.12 1.46 L357.81 1.88 L364.81 -0.86 L378.37 3.75 L387.56 14.33 L390.07 17.07 L390.83 32.17 L390.06 216.76 L391.78 224.35 L385.45 236.26 L376 246.57 L373.36 248.55 L359.07 248.08 L32.05 250.63 L23.26 248.65 L11.62 246.04 L5.16 239.08 L3.3 232.85 L0.46 218.71 L0.55 23.68 L1.61 17.91 L9.31 8.13 L19.05 2.57 L33.49 1.38" stroke="none" stroke-width="0" fill="#fff"></path><path d="M32 0 M32 0 C115.83 -0.41, 198.81 -1.25, 358.29 0 M32 0 C139.2 -1.64, 247.15 -1.69, 358.29 0 M358.29 0 C381.52 -1.24, 389.8 11.6, 390.29 32 M358.29 0 C380.96 -1.66, 388.27 12.38, 390.29 32 M390.29 32 C386.85 104, 387.54 175.97, 390.29 218 M390.29 32 C389.6 92.67, 390.45 155.38, 390.29 218 M390.29 218 C392.13 238.89, 377.92 251.71, 358.29 250 M390.29 218 C389.47 238.78, 381.3 251.14, 358.29 250 M358.29 250 C250.45 252.44, 140.77 250.67, 32 250 M358.29 250 C281.77 250.92, 204.74 250.92, 32 250 M32 250 C11.73 248.96, -0.46 239.36, 0 218 M32 250 C12.65 250.87, 0.07 241.33, 0 218 M0 218 C2.44 161.42, 0.66 105.85, 0 32 M0 218 C-1.45 171.27, -0.46 123.31, 0 32 M0 32 C0.18 11.02, 10.82 1.11, 32 0 M0 32 C-0.15 8.53, 10.84 1.25, 32 0" stroke="#000000" stroke-width="1" fill="none"></path></g></svg>